<?xml version="1.0" encoding="UTF-8"?><svg id="Layer_2" xmlns="http://www.w3.org/2000/svg" viewBox="0 0 32 32"><defs><style>.cls-1{fill:#f7f7f7;}.cls-1,.cls-2,.cls-3,.cls-4,.cls-5,.cls-6,.cls-7,.cls-8,.cls-9,.cls-10,.cls-11,.cls-12,.cls-13,.cls-14,.cls-15,.cls-16,.cls-17,.cls-18,.cls-19,.cls-20,.cls-21,.cls-22,.cls-23,.cls-24,.cls-25,.cls-26,.cls-27,.cls-28,.cls-29,.cls-30,.cls-31,.cls-32,.cls-33,.cls-34,.cls-35,.cls-36,.cls-37,.cls-38,.cls-39,.cls-40,.cls-41,.cls-42,.cls-43,.cls-44,.cls-45,.cls-46,.cls-47,.cls-48,.cls-49,.cls-50,.cls-51,.cls-52,.cls-53,.cls-54,.cls-55,.cls-56,.cls-57,.cls-58,.cls-59,.cls-60,.cls-61,.cls-62,.cls-63,.cls-64,.cls-65,.cls-66,.cls-67,.cls-68,.cls-69,.cls-70,.cls-71,.cls-72,.cls-73,.cls-74,.cls-75,.cls-76,.cls-77,.cls-78,.cls-79,.cls-80,.cls-81,.cls-82,.cls-83,.cls-84,.cls-85,.cls-86,.cls-87,.cls-88,.cls-89,.cls-90,.cls-91,.cls-92,.cls-93,.cls-94,.cls-95,.cls-96,.cls-97,.cls-98,.cls-99,.cls-100,.cls-101,.cls-102,.cls-103,.cls-104,.cls-105,.cls-106,.cls-107,.cls-108,.cls-109,.cls-110,.cls-111,.cls-112,.cls-113,.cls-114,.cls-115,.cls-116,.cls-117,.cls-118,.cls-119,.cls-120,.cls-121,.cls-122,.cls-123,.cls-124,.cls-125,.cls-126,.cls-127,.cls-128,.cls-129{stroke-width:0px;}.cls-2{fill:#f8f8f8;}.cls-3{fill:#777;}.cls-4{fill:#767676;}.cls-5{fill:#797979;}.cls-6{fill:#7a7a7a;}.cls-7{fill:#787878;}.cls-8{fill:#757575;}.cls-9{fill:#282828;}.cls-10{fill:#5c5c5c;}.cls-11{fill:#2d2d2d;}.cls-12{fill:#595959;}.cls-13{fill:#646464;}.cls-14{fill:gray;}.cls-15{fill:#9a9a9a;}.cls-16{fill:#898989;}.cls-17{fill:#959595;}.cls-18{fill:#727272;}.cls-19{fill:#a2a2a2;}.cls-20{fill:#949494;}.cls-21{fill:#9b9b9b;}.cls-22{fill:#393939;}.cls-23{fill:#3c3c3c;}.cls-24{fill:#585858;}.cls-25{fill:#838383;}.cls-26{fill:#2e2e2e;}.cls-27{fill:#1a1a1a;}.cls-28{fill:#181818;}.cls-29{fill:#0a0a0a;}.cls-30{fill:#363636;}.cls-31{fill:#111;}.cls-32{fill:#0f0f0f;}.cls-33{fill:#101010;}.cls-34{fill:#090909;}.cls-35{fill:#0d0d0d;}.cls-36{fill:#141414;}.cls-37{fill:#070707;}.cls-38{fill:#080808;}.cls-39{fill:#151515;}.cls-40{fill:#0c0c0c;}.cls-41{fill:#0b0b0b;}.cls-42{fill:#a8a8a8;}.cls-43{fill:#1f1f1f;}.cls-44{fill:#121212;}.cls-45{fill:#c4c4c4;}.cls-46{fill:#c3c3c3;}.cls-47{fill:#d1d1d1;}.cls-48{fill:#d2d2d2;}.cls-49{fill:#ddd;}.cls-50{fill:#c7c7c7;}.cls-51{fill:#dedede;}.cls-52{fill:#d0d0d0;}.cls-53{fill:#c9c9c9;}.cls-54{fill:#afafaf;}.cls-55{fill:#e0e0e0;}.cls-56{fill:#c5c5c5;}.cls-57{fill:#e1e1e1;}.cls-58{fill:#c8c8c8;}.cls-59{fill:#d5d5d5;}.cls-60{fill:#dcdcdc;}.cls-61{fill:#dbdbdb;}.cls-62{fill:#dadada;}.cls-63{fill:#d4d4d4;}.cls-64{fill:#d9d9d9;}.cls-65{fill:#bbb;}.cls-66{fill:#bebebe;}.cls-67{fill:#a4a4a4;}.cls-68{fill:#ababab;}.cls-69{fill:#bfbfbf;}.cls-70{fill:#b2b2b2;}.cls-71{fill:#a5a5a5;}.cls-72{fill:#b0b0b0;}.cls-73{fill:#b1b1b1;}.cls-74{fill:#aaa;}.cls-75{fill:#bcbcbc;}.cls-76{fill:#a9a9a9;}.cls-77{fill:#a6a6a6;}.cls-78{fill:#cecece;}.cls-79{fill:#cdcdcd;}.cls-80{fill:#939393;}.cls-81{fill:#b4b4b4;}.cls-82{fill:#b7b7b7;}.cls-83{fill:#b8b8b8;}.cls-84{fill:#8a8a8a;}.cls-85{fill:#b5b5b5;}.cls-86{fill:#9d9d9d;}.cls-87{fill:#9e9e9e;}.cls-88{fill:#c2c2c2;}.cls-89{fill:#8f8f8f;}.cls-90{fill:#b3b3b3;}.cls-91{fill:#b6b6b6;}.cls-92{fill:#bababa;}.cls-93{fill:#8d8d8d;}.cls-94{fill:#8e8e8e;}.cls-95{fill:#8c8c8c;}.cls-96{fill:#999;}.cls-97{fill:#989898;}.cls-98{fill:#979797;}.cls-99{fill:#7c7c7c;}.cls-100{fill:#a1a1a1;}.cls-101{fill:#9c9c9c;}.cls-102{fill:#929292;}.cls-103{fill:#9f9f9f;}.cls-104{fill:#a0a0a0;}.cls-105{fill:#fdfdfd;}.cls-106{fill:#7e7e7e;}.cls-107{fill:#6b6b6b;}.cls-108{fill:#7f7f7f;}.cls-109{fill:#818181;}.cls-110{fill:#686868;}.cls-111{fill:#ededed;}.cls-112{fill:#e8e8e8;}.cls-113{fill:#e3e3e3;}.cls-114{fill:#e4e4e4;}.cls-115{fill:#efefef;}.cls-116{fill:#e2e2e2;}.cls-117{fill:#e5e5e5;}.cls-118{fill:#fbfbfb;}.cls-119{fill:#fefefe;}.cls-120{fill:#eaeaea;}.cls-121{fill:#eee;}.cls-122{fill:#ebebeb;}.cls-123{fill:#f0f0f0;}.cls-124{fill:#fcfcfc;}.cls-125{fill:#e7e7e7;}.cls-126{fill:#f5f5f5;}.cls-127{fill:#e9e9e9;}.cls-128{fill:#676767;}.cls-129{fill:#696969;}</style></defs><g id="iikSmO.tif"><path class="cls-124" d="m31.18,31.18H0V0c10.39,0,20.78,0,31.18,0v31.18Zm-25.75-7.31c.21.14.42.28.63.42,0-.02.02-.03.03-.05-.21-.14-.42-.29-.64-.43-.43-.33-.79-.72-1.11-1.16-.27-.37-.48-.77-.56-1.23-.11-.61.07-1.16.37-1.68.03-.06.07-.11.1-.17-.27.2-.46.45-.57.75-.27.73-.13,1.41.27,2.06.38.61.9,1.08,1.47,1.5Zm21.04-1.74c.22-.3.37-.62.39-.99.04-.7-.23-1.28-.73-1.75-.12-.11-.19-.23-.22-.4-.15-.95-.29-1.9-.46-2.85-.42-2.26-1.06-4.46-1.79-6.64-.11-.34-.26-.65-.48-.94-.65-.85-1.52-1.38-2.51-1.74-1.5-.54-3.06-.73-4.64-.77-1.21-.03-2.41.07-3.6.29-1.23.23-2.4.59-3.46,1.28-.68.44-1.21,1-1.49,1.79-1.12,3.13-1.98,6.33-2.39,9.64-.02.15-.08.25-.18.36-.17.19-.35.37-.48.59-.5.83-.35,1.72.29,2.41-.4-.91-.52-1.79.22-2.59-.03.24-.06.49-.12.72-.23.86.06,1.55.7,2.11.19.17.42.3.63.45.05.03.1.07.13.12.17.3.43.51.71.69.78.49,1.65.75,2.56.92.16.03.35.04.48.13.5.36,1.07.57,1.67.71.89.21,1.8.32,2.71.22.26-.03.51-.05.77,0,.36.07.73.13,1.1.14,1.28.06,2.55-.08,3.8-.4.48-.12.97-.25,1.37-.57.18-.15.38-.22.6-.28.8-.19,1.58-.46,2.27-.91.23-.15.45-.32.58-.57.06-.12.15-.21.27-.27.91-.52,1.3-1.44,1.04-2.45-.07-.28-.12-.56-.18-.87.56.49.68,1.2.47,2.43Zm-6.61,4.12s0,.02,0,.03c.14-.02.28-.04.43-.06,1.38-.18,2.7-.6,3.94-1.22.84-.42,1.58-.96,2.14-1.73.02-.03.04-.07.07-.12-.04,0-.05,0-.05.01-.03.03-.07.06-.1.09-.47.49-.99.92-1.57,1.27-1.14.69-2.39,1.13-3.67,1.46-.4.1-.8.19-1.19.28Zm5.7-2.93c-1.1,1.01-2.47,1.54-3.82,2.12.04.01.08.01.11,0,1.06-.27,2.05-.69,2.95-1.32.31-.21.57-.47.76-.81Zm-18.45,1.71c-.16.03-.28.03-.39.08-.08.04-.18.13-.19.2-.01.08.05.19.12.25.21.18.71.2.95.06.21-.12.22-.33,0-.43-.17-.08-.36-.12-.5-.16Zm19.72-2.53c.5-.55.68-1.18.54-1.9-.09-.44-.35-.92-.49-.95.51.95.45,1.9-.04,2.85Zm-21.08.92c.75.92,1.79,1.28,2.88,1.54-1.03-.39-2.03-.83-2.88-1.54Zm8.54,2.89s0-.02,0-.04c-1.08-.15-2.17-.3-3.25-.46,1.06.32,2.15.49,3.25.49Zm4.87-.16c-.98.07-1.96.14-2.99.21.46.13,2.24.01,2.99-.21Zm6.7-1.03c.17,0,.32-.09.33-.21,0-.12-.12-.23-.3-.24-.17-.02-.35.09-.36.21-.01.12.15.24.33.24Zm-21.05-.77c0-.12-.11-.21-.24-.2-.11,0-.21.11-.21.22,0,.11.12.21.24.2.12,0,.21-.1.21-.21Zm23.28-2.36c0-.13-.07-.19-.19-.21-.1-.01-.22.09-.21.19,0,.12.08.18.2.19.12,0,.19-.06.2-.17Zm-18.77,3.94c.05-.06.13-.13.13-.19,0-.06-.1-.14-.16-.15-.1-.02-.18.05-.18.15,0,.11.07.15.21.19Zm-6.01-6.19c-.05.07-.11.11-.11.15,0,.04.07.1.1.1.04,0,.1-.06.12-.1,0-.03-.05-.08-.11-.15Zm2.23,5.26c-.06-.05-.1-.09-.14-.09-.03,0-.06.04-.1.06.03.04.06.08.11.1.02,0,.06-.04.13-.07Z"/><path class="cls-29" d="m26.46,22.13c.21-1.23.08-1.94-.47-2.43.06.31.11.59.18.87.25,1.01-.13,1.93-1.04,2.45-.12.07-.2.15-.27.27-.13.25-.34.42-.58.57-.7.46-1.47.72-2.27.91-.22.05-.42.13-.6.28-.4.32-.88.44-1.37.57-1.25.32-2.51.45-3.8.4-.37-.02-.74-.07-1.1-.14-.26-.05-.51-.03-.77,0-.92.09-1.82-.02-2.71-.22-.6-.14-1.16-.34-1.67-.71-.13-.09-.31-.1-.48-.13-.9-.17-1.77-.43-2.56-.92-.29-.18-.54-.39-.71-.69-.03-.05-.08-.08-.13-.12-.21-.15-.44-.28-.63-.45-.64-.56-.93-1.25-.7-2.11.06-.24.1-.48.12-.72-.73.8-.61,1.68-.22,2.59-.65-.68-.79-1.58-.29-2.41.13-.21.31-.4.48-.59.09-.11.16-.21.18-.36.41-3.31,1.28-6.51,2.39-9.64.28-.79.82-1.35,1.49-1.79,1.05-.68,2.23-1.05,3.46-1.28,1.19-.22,2.39-.31,3.6-.29,1.58.04,3.14.22,4.64.77.99.36,1.86.89,2.51,1.74.22.29.37.6.48.94.74,2.17,1.37,4.38,1.79,6.64.18.95.32,1.9.46,2.85.03.17.1.29.22.4.51.47.77,1.05.73,1.75-.02.37-.17.7-.39.99Zm-3.56-9.8c-.03-.16-.06-.33-.1-.49-.04-.14-.1-.27-.15-.4,0-.03-.02-.07-.03-.1,0-.04.03-.08.02-.11-.09-.29-.19-.58-.54-.7.08-.02.17-.05.23-.02.09.05.17.14.25.21.1.31.2.63.3.94.05.22.1.43.16.65.07.3.14.61.21.91,0,.04.01.09.02.13.08.38.17.76.26,1.14.07.32.14.65.21.97,0,.03,0,.06,0,.09.11.64.23,1.28.34,1.92.25,1.45.45,2.91.57,4.37.02.3.06.59.09.89.05-.02.11-.03.15-.06.39-.23.68-.56.87-.97.1-.21.12-.43.08-.67-.09-.52-.17-1.05-.25-1.57-.19-1.21-.35-2.42-.58-3.61-.4-2.07-.97-4.1-1.67-6.09-.1-.28-.24-.53-.37-.8-.02-.04-.06-.07-.09-.11.02.12.06.23.09.33.14.55.27,1.11.41,1.67.01.04,0,.09.01.13-.02-.04-.05-.07-.06-.11-.09-.22-.18-.45-.27-.67-.01-.04-.02-.08-.04-.12-.09.17-.18.34-.27.51,0,.01-.02.02-.03.03l-.33-.33c.14-.22.28-.45.42-.67.07-.29.06-.58-.08-.85-.04-.06-.07-.12-.11-.19-.12-.14-.23-.3-.37-.42-.36-.35-.79-.6-1.25-.79-1.39-.6-2.87-.82-4.36-.94-.89-.07-1.77-.03-2.66.05-1.32.12-2.62.37-3.85.9-.58.25-1.15.54-1.58,1.03-.38.43-.43.91-.16,1.42,0,.02,0,.04,0,.05-.23-.29-.3-.63-.27-1-.14.23-.28.47-.37.71-.73,2.01-1.36,4.04-1.79,6.13-.12.58-.21,1.16-.32,1.75-.06.39-.12.79-.18,1.18-.09.57-.18,1.14-.27,1.71-.03.17-.06.35-.09.52,0,.12-.04.25-.02.37.15.67.59,1.11,1.18,1.42.04.02.09.03.17.05-.02-.1-.04-.16-.05-.23.02-.33.02-.66.05-.99.05-.54.11-1.07.16-1.6.04-.24.07-.48.11-.72.09-.57.17-1.14.26-1.71.03-.15.05-.31.08-.46.12-.67.25-1.34.37-2.01.27-1.26.56-2.51.94-3.74.1-.24.15-.5.37-.67.07-.02.15-.05.23-.07-.05-.05-.09-.1-.13-.14.06.02.11.03.17.06.4.21.8.43,1.19.64.06.03.1.07.16.11-.11-.03-.22-.06-.33-.09-.2-.1-.39-.2-.59-.3-.18-.11-.35-.25-.58-.1-.06.08-.13.16-.19.24-.17.55-.34,1.1-.52,1.64-.07.25-.14.51-.19.76-.12.56-.24,1.11-.35,1.67-.12.66-.24,1.32-.36,1.99-.07.48-.14.95-.21,1.43-.07.66-.14,1.32-.21,1.98-.06.65-.12,1.3-.12,1.95,0,.03,0,.06,0,.1-.05-.04-.08-.07-.11-.1l-.02.02c.05.13.09.26.14.39-.06-.04-.12-.07-.21-.13.03.1.04.17.07.23.12.28.34.47.59.62.74.46,1.56.7,2.4.86.31.06.6.14.86.34.13.11.29.18.45.24,1.11.42,2.26.58,3.45.49.25-.02.49-.06.74-.03.49.05.98.17,1.47.19,1.37.06,2.72-.16,4.03-.58.25-.08.46-.24.7-.36.2-.1.39-.21.6-.28.31-.1.63-.17.93-.27.5-.17,1-.35,1.41-.69.14-.11.23-.28.35-.43,0-.17.02-.35.02-.52,0-.07,0-.14-.01-.21-.08-.73-.15-1.46-.23-2.19-.01-.16-.02-.32-.05-.48-.08-.61-.17-1.22-.26-1.83-.07-.44-.16-.88-.23-1.31-.01-.1-.02-.21-.04-.31-.09-.47-.18-.93-.28-1.4-.12-.57-.25-1.13-.38-1.7-.06-.23-.12-.47-.18-.7Z"/><path class="cls-41" d="m19.85,26.25c.4-.09.8-.18,1.19-.28,1.29-.33,2.53-.77,3.67-1.46.58-.35,1.1-.78,1.57-1.27.03-.03.07-.06.1-.09,0,0,.02,0,.05-.01-.03.05-.05.09-.07.12-.56.77-1.3,1.31-2.14,1.73-1.24.62-2.56,1.04-3.94,1.22-.14.02-.28.04-.43.06,0-.01,0-.02,0-.03Z"/><path class="cls-40" d="m5.42,23.87c-.58-.41-1.1-.88-1.47-1.5-.4-.65-.54-1.33-.27-2.06.11-.3.3-.55.57-.75-.03.06-.07.11-.1.17-.3.52-.48,1.07-.37,1.68.08.46.29.86.56,1.23.32.44.68.83,1.11,1.16,0,.02-.02.04-.03.06Z"/><path class="cls-41" d="m25.55,23.32c-.19.34-.45.59-.76.81-.9.63-1.89,1.05-2.95,1.32-.03,0-.07,0-.11,0,1.34-.58,2.71-1.11,3.82-2.12Z"/><path class="cls-40" d="m7.1,25.03c.15.05.34.08.5.16.22.11.2.31,0,.43-.25.14-.74.12-.95-.06-.07-.06-.13-.17-.12-.25.01-.08.11-.17.19-.2.1-.05.22-.05.39-.08Zm.05.34c.12.1.25.1.38,0-.12-.1-.27-.1-.38,0Zm-.4-.04c.09.06.17.08.24,0,.01-.01,0-.05,0-.08-.08.02-.16.04-.24.05,0,0,0,0,0,.03Z"/><path class="cls-34" d="m26.83,22.5c.5-.95.56-1.89.04-2.85.14.03.41.51.49.95.14.72-.04,1.35-.54,1.9Z"/><path class="cls-35" d="m5.74,23.41c.86.71,1.85,1.16,2.88,1.54-1.09-.27-2.14-.62-2.88-1.54Z"/><path class="cls-29" d="m14.28,26.31c-1.11,0-2.19-.17-3.25-.49,1.08.15,2.17.3,3.25.46,0,.01,0,.02,0,.04Z"/><path class="cls-38" d="m19.15,26.15c-.74.23-2.53.34-2.99.21,1.03-.07,2.01-.14,2.99-.21Z"/><path class="cls-33" d="m25.85,25.12c-.18,0-.34-.12-.33-.24.01-.12.19-.23.36-.21.18.02.31.12.3.24,0,.12-.15.21-.33.21Z"/><path class="cls-29" d="m4.8,24.35c0,.12-.08.21-.21.21-.12,0-.24-.09-.24-.2,0-.1.1-.21.21-.22.12,0,.23.09.24.2Z"/><path class="cls-41" d="m28.08,21.99c-.01.12-.08.18-.2.17-.12,0-.19-.07-.2-.19,0-.1.11-.21.21-.19.11.02.18.08.19.21Z"/><path class="cls-41" d="m9.31,25.93c-.14-.04-.22-.08-.21-.19,0-.11.09-.17.18-.15.07.01.16.1.16.15,0,.06-.08.13-.13.19Z"/><path class="cls-22" d="m5.42,23.87s.02-.04.03-.06c.21.14.42.29.64.43,0,.02-.02.03-.03.05-.21-.14-.42-.28-.63-.42Z"/><path class="cls-28" d="m3.29,19.74c.05.07.11.12.11.15-.01.04-.07.1-.12.1-.03,0-.1-.06-.1-.1,0-.04.06-.08.11-.15Z"/><path class="cls-28" d="m5.52,25c-.06.04-.11.08-.13.07-.04-.02-.07-.07-.11-.1.03-.02.07-.07.1-.06.04,0,.07.04.14.09Z"/><path class="cls-29" d="m22.62,11.34s.02.07.03.1c0,.03-.03.06-.02.09.06.27.13.54.2.81.06.28.12.57.19.85,0,.03,0,.06,0,.09.14.69.29,1.39.43,2.08.08.4.16.8.24,1.2,0,.03,0,.06,0,.09.13.81.27,1.63.39,2.44.06.39.1.79.14,1.19,0,.17,0,.34,0,.51v.35c-.04-.08-.06-.15-.07-.23-.04-.27-.08-.54-.12-.82-.01-.05-.03-.11-.03-.16-.03-.28-.05-.57-.09-.85-.21-1.57-.48-3.13-.81-4.68-.08-.38-.17-.77-.25-1.15-.04-.18-.08-.36-.12-.55-.06-.25-.12-.51-.18-.76-.05-.18-.09-.37-.14-.55-.01,0-.03,0-.04.01.05.2.1.4.15.6.06.26.12.53.18.79.04.19.08.38.13.57.06.35.13.69.19,1.04.28,1.64.57,3.28.85,4.92.04.25.08.51.12.76.01.1.02.19.03.29.06.4.12.81.18,1.21.03.29.06.57.09.86,0,.18,0,.36,0,.54-.13.11-.24.25-.39.33-.33.18-.68.33-1.02.49-.2-.1-.04-.22,0-.35-.04.02-.07.03-.1.04,0-.08.01-.15.02-.24-.01-.03-.06-.08-.05-.11.06-.11,0-.21-.02-.32-.02-.14-.04-.28-.06-.42-.02.06-.03.11-.02.17.02.21.04.42.05.63,0,.1-.08.21-.17.19-.03,0-.05-.09-.07-.15-.02-.06-.03-.12-.03-.18-.09-.82-.18-1.64-.28-2.46-.02-.17-.04-.35-.06-.52-.01,0-.03,0-.04,0,.02.2.05.41.07.61,0,.1.01.19.02.29.02.36.05.71.07,1.07-.01-.03-.03-.06-.03-.1-.05-.4-.1-.8-.15-1.21-.04-.33-.08-.65-.12-.98-.05-.56-.09-1.13-.16-1.69-.18-1.43-.38-2.85-.58-4.28-.03-.23-.09-.45-.13-.68-.04.06-.04.11-.04.16.05.44.1.88.15,1.31.2,1.75.4,3.49.61,5.24,0,.06,0,.12,0,.18.03.48.06.96.08,1.44.03.57.04,1.13.07,1.7,0,.27,0,.54,0,.81,0,0,0,0-.01,0-.05-.57-.1-1.15-.15-1.72,0-.02-.02-.05-.02-.07-.03-.39-.06-.79-.09-1.18-.03-.34-.07-.68-.1-1.03,0,0-.01,0-.02,0l.09,2.49c.02.56.03,1.11.05,1.67-.11.04-.22.09-.33.13-.01-.49-.02-.98-.04-1.47-.01-.43-.04-.87-.06-1.3-.01-.21-.03-.41-.05-.62-.03-.45-.06-.89-.09-1.34-.03-.33-.06-.65-.09-.98-.03-.35-.06-.69-.1-1.04-.05-.46-.11-.92-.17-1.39-.12-.94-.23-1.89-.36-2.83-.04-.31-.1-.62-.17-.92-.04-.19-.13-.37-.33-.44-.2-.11-.4-.12-.62-.07l-.24.03s-.04,0-.06,0c-.84.09-1.69.18-2.53.29-.56.07-.85.32-.93.78-.02.12-.03.24-.04.36-.02.25-.06.49-.07.74-.04.61-.07,1.21-.11,1.82,0,.03-.02.06-.02.09-.03,1.07-.05,2.13-.08,3.2-.01.59-.02,1.18-.03,1.77,0,.07-.02.15-.02.22,0,.68,0,1.35-.01,2.03,0,.06-.02.13-.03.19-.12-.02-.24-.04-.36-.06,0-.15-.01-.29-.01-.44,0-.37,0-.74,0-1.13-.01.04-.02.04-.02.04-.02.52-.05,1.04-.07,1.56,0,.02.05.03.07.05.13.01.26.02.39.03,0,.08.01.16.02.25h-.01c-.15-.04-.31-.08-.46-.05,0,.02,0,.05,0,.07.13,0,.27.01.4.02.12.06.06.17.07.27-.16-.02-.32-.05-.47-.07,0,.03,0,.06-.01.09.15.02.3.03.45.05.01.09.02.18.03.26-.16-.07-.33-.1-.5-.07,0,.02,0,.04,0,.06.15.01.29.03.44.04.02.08.04.16.07.24-.17-.07-.34-.08-.51-.04v.05c.17.03.34.06.51.08,0,.07,0,.14,0,.21-.14-.02-.28-.04-.43-.06-.08.03-.17.05-.25.08v.03c.07,0,.13,0,.19-.01,0,.06-.02.12-.03.18-.08.02-.16.03-.24.05-.01-.19-.03-.2-.22-.14-.08,0-.17.02-.27.03v-.18c.13-.04.26-.07.39-.12.04-.02.07-.07.1-.11,0,0-.02-.02-.03-.02-.15.05-.31.1-.46.16.01-.08.02-.16.03-.23.17-.05.35-.08.45-.23,0-.01-.02-.03-.02-.04l-.4.17c0-.07-.02-.14-.03-.21.42-.16.44-.17.43-.29-.13.07-.25.13-.38.2-.01-.01-.03-.02-.03-.03-.02-.11.03-.16.13-.2.12-.05.25-.1.32-.22,0-.01-.02-.02-.03-.03-.12.08-.24.15-.37.23-.03-.12-.01-.18.08-.23.08-.04.16-.08.23-.14.04-.03.07-.08.07-.12,0-.22,0-.44,0-.66.01-.27.02-.55.04-.82-.02,0-.04,0-.07,0v.54c-.02.29-.03.58-.06.86-.01.17-.09.23-.28.24,0-.03,0-.06,0-.09.03-.57.06-1.13.08-1.7.02-.46.03-.93.04-1.4.03-.79.07-1.59.09-2.38.02-1.08.03-2.17.04-3.25.01-.21.02-.42.04-.63-.02,0-.05,0-.07,0v.48c-.03.57-.08,1.14-.1,1.71-.05,1.13-.1,2.26-.15,3.39-.02.39-.05.78-.06,1.17-.03.87-.05,1.73-.07,2.6,0,.1-.03.2,0,.3.02.11,0,.18-.11.22.15.02.09.13.1.2-.08.03-.17.06-.25.09,0,0,0,.02,0,.03.06-.01.12-.02.17-.04.01.07.02.14.03.22-.09.02-.18.04-.27.07,0,.01,0,.02,0,.04.09-.01.17-.02.26-.03,0,.08,0,.16,0,.24-.11.03-.22.06-.33.09,0,.01,0,.02,0,.04.11-.01.22-.02.33-.03,0,.1,0,.2,0,.3-.48-.04-.95-.08-1.43-.12-.01-.44-.02-.89-.03-1.33,0-.75.01-1.51.03-2.26.01-.52.04-1.03.06-1.55.03-.66.06-1.32.09-1.98.02-.25.03-.5.05-.76.04-.69.09-1.38.13-2.07.02-.33.04-.66.07-.99.04-.46.08-.92.12-1.38.02-.25.14-.44.39-.52h.69s0-.03,0-.04c-.04-.01-.08-.02-.12-.03.05-.01.1-.03.19-.05-.22-.04-.41-.07-.59-.1-.35-.07-.71-.14-1.06-.21-.12-.04-.24-.08-.36-.13.06,0,.12,0,.18.02.97.17,1.95.27,2.93.28,1.19.02,2.37-.06,3.55-.24,1.08-.17,2.13-.43,3.1-.95.04-.02.09-.04.14-.06.18-.07.33-.03.44.12.07.1.11.22.16.32.03.05.06.1.09.15Z"/><path class="cls-124" d="m8.41,9.83c-.27-.5-.22-.99.16-1.42.43-.49.99-.78,1.58-1.03,1.23-.53,2.52-.78,3.85-.9.89-.08,1.77-.12,2.66-.05,1.5.11,2.97.34,4.36.94.46.2.89.44,1.25.79.13.13.24.28.37.42-.07.01-.15.02-.22.03-.18-.18-.33-.38-.53-.54-.51-.4-1.1-.67-1.72-.85-1.49-.44-3-.54-4.51-.1-.07.02-.14.04-.2.06-.06.02-.12.05-.21.08.65-.07,1.26-.14,1.86-.21.16,0,.33,0,.49,0,0,0,0,.01,0,.02-.06.01-.11.03-.17.04-.4.06-.81.11-1.21.17,0,.02,0,.05,0,.07.71-.08,1.41-.08,2.12-.02.07.02.14.03.21.05v.02c-.09,0-.19.02-.28.03-.4.02-.81.05-1.21.07,0,0,0,.01,0,.02.51.04,1.02.08,1.52.12-.04.03-.12.06-.03.12-.01,0-.03.02-.04.03-.19-.01-.39-.03-.58-.04,0,.01,0,.03,0,.04.13.02.26.04.38.06-.08.04-.2.05-.22.11-.11.25-.36.28-.56.38-.57.28-1.15.54-1.73.79-.36.16-.72.3-1.09.42-.22.08-.46.12-.69.18-.1.03-.2.06-.3.09-.11,0-.23-.02-.34-.03-.35-.04-.7-.08-1.05-.12,0,0,0-.01,0-.02h.9s-.05-.04-.08-.05c-.48-.09-.96-.17-1.43-.27-.51-.11-1-.27-1.47-.52.02-.02.03-.04.05-.05.53.27,1.1.4,1.68.48-.68-.22-1.34-.5-1.94-.88-.13-.11-.27-.22-.4-.33-.03,0-.07-.04-.09-.03-.09.04-.18.09-.27.14-.17.12-.35.24-.52.37-.1.14-.2.29-.3.43-.02.06-.04.12-.06.18,0,.07-.03.15-.02.22.02.15.06.29.09.44,0,.01-.02.03-.03.04Zm2.5-1.97c.25-.45.68-.61,1.08-.8-.35.05-.7.12-.96.39-.1.1-.16.23-.12.41Zm.26-.27s.02.03.02.04c.2-.1.4-.2.61-.31,0-.02-.02-.04-.03-.05-.2.11-.4.21-.6.32Z"/><path class="cls-124" d="m8.86,10.72c.22-.16.4-.02.58.1l-.08.03s.01.04.02.06c.21.07.43.13.64.2l.33.09c.51.16,1.02.33,1.52.49-.02.01-.04.04-.05.04-.15-.02-.31-.05-.46-.08-.03,0-.06-.02-.1-.03,0,.01.02.03.02.04-.04.04-.07.07-.11.11-.38-.11-.77-.22-1.15-.33-.11-.03-.17,0-.2.11-.1.4-.21.8-.32,1.2-.03.13-.06.27-.08.4-.1.53-.19,1.05-.29,1.58-.09.57-.18,1.14-.27,1.7-.05.35-.1.71-.15,1.06-.06.51-.13,1.02-.19,1.52-.07.42-.14.83-.21,1.25-.07.23-.13.47-.23.69-.16.34-.44.34-.62.01-.1-.19-.15-.41-.22-.61-.02-.29-.05-.58-.06-.87,0-.34.02-.67.03-1.01.06-.47.12-.93.18-1.4.03-.15.06-.31.09-.46.09-.53.18-1.05.28-1.58,0-.03.02-.06.03-.09.18-.78.37-1.57.55-2.35.02-.06.04-.12.06-.19.14-.44.22-.91.49-1.31.1-.07.2-.13.31-.2-.11-.06-.23-.13-.34-.19Z"/><path class="cls-98" d="m11.87,11.69c-.51-.16-1.02-.33-1.52-.49-.05-.04-.1-.08-.16-.11-.4-.22-.8-.43-1.19-.64-.05-.03-.11-.04-.17-.06-.14-.17-.29-.33-.43-.5,0-.02,0-.04,0-.05.01-.01.03-.03.03-.04-.03-.15-.07-.29-.09-.44-.01-.07.01-.15.02-.22.03.13.05.25.08.38,0,0,.01,0,.02,0,0-.09,0-.19,0-.28.05-.1.11-.06.17,0,.1.09.21.17.31.26.02.02.04.04.06.07.08.09.16.18.24.26.15.13.29.26.45.37.08.06.2.08.29.12.25.08.52.12.74.3l-.18-.02c.08.06.17.08.25.11.06.03.13.06.19.09.13.08.25.19.39.24.49.18,1,.27,1.52.3.65.03,1.31.03,1.96.04.05,0,.1,0,.15,0,0,.01,0,.02,0,.03-.17.04-.33.08-.5.12,0,.01,0,.02,0,.03.3.02.6.04.92.05-.04.04-.06.06-.1.1.07.01.12.02.17.02,1.06.05,2.12,0,3.16-.2.61-.12,1.21-.24,1.78-.52.34-.17.6-.4.69-.78.07.09.13.06.21,0,.1-.08.21-.14.34-.06-.02.1-.04.21-.06.31.04.01.08.05.11.04.23-.07.45-.15.68-.23.11.11.22.22.33.33-.05.03-.11.07-.16.1-.08-.07-.15-.16-.25-.21-.06-.03-.15,0-.23.02.35.11.45.4.54.7.01.03,0,.08-.02.11-.03-.05-.06-.1-.09-.15-.06-.11-.1-.23-.16-.32-.11-.16-.26-.19-.44-.12-.05.02-.09.04-.14.06-.97.52-2.02.78-3.1.95-1.18.18-2.36.26-3.55.24-.99-.02-1.96-.11-2.93-.28-.06-.01-.12-.01-.18-.02-.05,0-.11,0-.16,0Z"/><path class="cls-119" d="m23.41,10.99s0-.09-.01-.13c-.13-.56-.27-1.11-.41-1.67-.03-.11-.07-.21-.09-.33.03.04.07.07.09.11.13.26.27.52.37.8.7,1.99,1.27,4.02,1.67,6.09.23,1.2.39,2.41.58,3.61.08.53.16,1.05.25,1.57.04.23.01.46-.08.67-.19.41-.48.74-.87.97-.05.03-.1.04-.15.06,0-.1,0-.19.12-.23l.12-.09c.17-.2.34-.41.51-.61.09-.18.13-.37.1-.57-.07-.55-.11-1.1-.2-1.64-.19-1.21-.4-2.43-.61-3.64-.04-.21-.1-.41-.16-.62-.01,0-.02,0-.03,0,.07.42.13.84.2,1.26,0,.03-.01.06-.01.08-.06-.02-.15-.05-.16-.04-.08.15-.32.13-.34.34-.01-.04-.03-.09-.04-.13-.17-.82-.34-1.63-.51-2.45-.05-.26-.11-.51-.16-.77,0-.08.03-.15.02-.23-.03-.59-.06-1.17-.08-1.75.02-.23-.02-.44-.12-.64Z"/><path class="cls-118" d="m22.9,23.81c.34-.16.69-.31,1.02-.49.15-.08.26-.22.39-.33.02-.07.03-.14.04-.18.06.06.13.12.2.18-.12.14-.21.31-.35.43-.42.33-.91.52-1.41.69-.31.1-.63.16-.93.27-.21.07-.4.18-.6.28-.23.12-.45.28-.7.36-1.31.42-2.65.64-4.03.58-.49-.02-.98-.14-1.47-.19-.24-.02-.49.01-.74.03-1.19.09-2.34-.08-3.45-.49-.16-.06-.32-.14-.45-.24-.26-.2-.55-.28-.86-.34-.84-.16-1.67-.4-2.4-.86-.25-.15-.47-.34-.59-.62-.03-.06-.04-.13-.07-.23.09.06.15.1.21.13.11.1.22.21.33.31.15.11.3.23.46.31.7.38,1.45.6,2.23.74.12.03.24.06.36.09.15.08.3.17.46.25.1.06.2.14.31.19.49.21,1,.34,1.52.42.48.04.95.08,1.43.12.04,0,.08,0,.13,0,.15-.01.31-.02.46-.03.08-.02.16-.03.24-.05.14,0,.28,0,.42,0,.37.07.74.13,1.1.2.75.06,1.49.03,2.23-.06.49-.06.96-.17,1.33-.53.07-.07.14-.15.21-.23.02.04.02.07,0,.09-.14.16-.29.32-.45.5.43-.14.83-.27,1.24-.4.08-.04.17-.08.25-.11.03-.02.06-.05.09-.07.11-.08.22-.16.34-.24.11-.04.22-.09.33-.13.28-.07.55-.13.83-.2.08-.03.15-.05.23-.08.04-.02.09-.03.13-.05Z"/><path class="cls-106" d="m7.02,23.08c-.11-.1-.22-.21-.33-.31-.05-.13-.09-.26-.14-.39l.02-.02s.07.06.11.1c0-.04,0-.07,0-.1,0-.65.07-1.3.12-1.95.03.07.04.19.09.21.25.1.28.07.31-.19,0-.02.02-.05.03-.07.07.2.12.42.22.61.18.33.46.32.62-.01.1-.22.15-.46.23-.69.14,0,.3.04.41-.02.2-.11.37-.09.56,0,.05.03.11.05.17.05.19,0,.26-.03.27.23,0,.01,0,.03.02.04,0,.05-.02.1-.02.15-.01.36-.02.71-.04,1.07-.02-.05-.03-.1-.06-.19-.1.11-.18.19-.26.28-.12-.16-.22-.19-.37-.11-.08.04-.18.07-.27.08-.13.01-.25,0-.38,0-.17,0-.38-.05-.39.23-.05-.02-.07-.02-.09-.03-.15-.1-.18-.09-.25.08-.02.03-.05.06-.08.08-.05.04-.12.07-.17.12-.12.09-.15.29-.34.3-.07,0-.13.03-.2.04v.11c.07.02.15.03.17.06.03.07.03.15.04.23Z"/><path class="cls-105" d="m8.4,9.88c.14.17.29.33.43.5.04.04.08.09.13.14-.08.02-.15.05-.23.07-.05-.03-.1-.05-.14-.09-.11-.1-.21-.2-.31-.3-.12-.16-.24-.32-.37-.5-.05.21-.1.4-.15.59-.06.18-.12.36-.18.54-.05.13-.1.26-.15.39-.01.01-.03.02-.04.04-.17.51-.33,1.02-.49,1.53,0,0,0,.02.01.02-.01.05-.03.11-.04.16-.03.11-.06.22-.08.32-.02.03-.05.06-.06.1-.17.7-.35,1.39-.52,2.09-.15.63-.28,1.26-.43,1.89,0,.02,0,.04,0,.06-.04.01-.08.02-.13.03.11-.58.2-1.17.32-1.75.43-2.09,1.06-4.13,1.79-6.13.09-.25.23-.48.37-.71-.03.37.05.71.27,1Z"/><path class="cls-72" d="m8.37,11.26c-.39,1.23-.68,2.48-.94,3.74-.02-.03-.04-.06-.06-.09.07-.36.13-.73.21-1.09.08-.4.19-.8.27-1.2.05-.25-.02-.47-.24-.66-.02.12-.03.23-.06.33-.08.36-.16.73-.24,1.09l-.09-.1s.02-.08.02-.12c.07-.39.15-.79.22-1.18.02-.15.04-.29.05-.44.13-.4.27-.81.4-1.21.05-.07.1-.14.15-.21-.05.2-.11.4-.16.6-.01.04,0,.09,0,.13-.08.26-.16.53-.24.79.01,0,.02,0,.04.01.11-.27.22-.54.33-.81.04.03.1.05.13.09.07.1.13.21.2.31Z"/><path class="cls-62" d="m24.87,22.5c-.12.04-.12.13-.12.23-.03-.3-.07-.59-.09-.89-.12-1.47-.32-2.92-.57-4.37-.11-.64-.23-1.28-.34-1.92,0-.03,0-.06,0-.09.03-.04.06-.09.09-.13.11.54.23,1.09.33,1.63.1.53.19,1.07.28,1.6.02.15.04.29.06.44.1,1.02.21,2.03.31,3.05.02.15.04.3.06.44Z"/><path class="cls-109" d="m6.6,19.91c-.06.53-.12,1.07-.16,1.6-.03.33-.03.66-.05.99-.17-.11-.35-.22-.52-.34.05,0,.09.01.17.02-.06-.11,0-.28-.19-.3-.03,0-.03-.13-.07-.02,0,0-.01,0-.02-.01.04-.41.08-.81.11-1.22,0,.09.02.22.12.18.14-.06.34-.06.41-.24.03-.08.04-.17.05-.26.02-.15.03-.31.05-.46.01,0,.03,0,.04,0,.02.02.04.04.06.07Z"/><path class="cls-16" d="m6.6,19.91s-.04-.04-.06-.07c-.01,0-.03,0-.04,0-.02.15-.03.31-.05.46-.01.09-.02.18-.05.26-.07.18-.27.18-.41.24-.1.04-.11-.09-.12-.18.01-.12.02-.24.03-.36.05-.36.1-.71.15-1.07.09.14.17.28.26.42.06.09.13.06.16-.04.04-.15.08-.3.11-.45.04-.17.07-.33.11-.5.06-.37.12-.73.18-1.1.01-.04.02-.08.03-.12.02.02.04.04.06.06-.09.57-.17,1.14-.26,1.71-.04.24-.07.48-.11.72Z"/><path class="cls-101" d="m22.41,10.29c-.23.08-.45.16-.68.23-.03,0-.08-.03-.11-.04.05-.08.12-.16.15-.25.08-.2,0-.39-.06-.57.06-.05.12-.1.18-.15.11.18.1.38.08.58.02,0,.04,0,.06,0,.02-.18.04-.35.05-.53.03-.03.06-.06.09-.09.03.07.05.13.08.21.03-.07.05-.13.07-.18.09.11.21.03.31.02.1,0,.17,0,.2.1l-.42.67Z"/><path class="cls-16" d="m7.24,20.37s-.02.05-.03.07c-.03.26-.07.29-.31.19-.05-.02-.06-.14-.09-.21.07-.66.14-1.32.21-1.98.01.01.03.03.04.03.04-.03.07-.06.13-.1.01.05.02.08.02.11-.01.34-.03.67-.03,1.01,0,.29.04.58.06.87Z"/><path class="cls-1" d="m5.87,22.16c.17.11.35.22.52.34.02.07.03.13.05.23-.08-.02-.13-.02-.17-.05-.58-.32-1.03-.75-1.18-1.42-.03-.12,0-.25.02-.37.02.04.03.09.05.15.06-.12.11-.22.16-.33,0,.23-.09.46.1.66.08.08.13.19.2.28.03.08.06.16.08.24-.09-.11-.18-.22-.27-.34-.02.01-.03.03-.05.04.16.19.32.37.47.56h0Z"/><path class="cls-72" d="m8.34,12.6c-.18.78-.36,1.57-.55,2.35,0,.03-.02.06-.03.09-.03,0-.06-.01-.09-.02-.02,0-.04,0-.07,0,.12-.56.23-1.12.35-1.67.06-.26.13-.51.19-.76.06.11.12.03.19,0Z"/><path class="cls-60" d="m5.78,17.44s0-.04,0-.06c.03.04.06.09.1.13,0,.03,0,.05,0,.08-.11.65-.23,1.3-.34,1.95-.06.35-.11.7-.17,1.04-.05-.07-.1-.15-.15-.22.09-.57.18-1.14.27-1.71.01.02.02.05.04.07.02,0,.03,0,.05,0,.07-.43.15-.86.22-1.28Z"/><path class="cls-64" d="m24.29,22.45c-.03-.29-.06-.57-.09-.86,0-.04,0-.09.01-.13.09-.22.05-.44.02-.66,0-.17,0-.34,0-.51.03-.07.06-.15.09-.22.08.73.15,1.46.23,2.19,0,.07,0,.14.01.21-.07-.04-.13-.09-.2-.12,0,0-.05.07-.07.1Z"/><path class="cls-47" d="m24.32,20.06c-.03.07-.06.15-.09.22-.05-.4-.08-.8-.14-1.19-.12-.82-.26-1.63-.39-2.44,0-.03,0-.06,0-.09.03-.04.06-.08.09-.13.08.44.17.87.23,1.31.1.61.18,1.22.26,1.83.02.16.03.32.05.48Z"/><path class="cls-113" d="m23.78,16.44s-.06.08-.09.13c-.08-.4-.16-.8-.24-1.2-.14-.69-.29-1.39-.43-2.08,0-.03,0-.06,0-.09l.06-.15c.13.57.26,1.13.38,1.7.1.46.19.93.28,1.4.02.1.03.21.04.31Z"/><path class="cls-83" d="m8.37,11.26c-.07-.1-.13-.21-.2-.31-.03-.04-.09-.06-.13-.09.1-.18.2-.36.31-.55-.04-.06-.1-.06-.15.02-.1.17-.19.35-.28.53,0-.04-.01-.09,0-.13.05-.2.11-.4.16-.6.07.02.14.04.21.06.1.1.2.21.31.3.04.04.1.06.14.09-.22.17-.27.43-.37.67Z"/><path class="cls-100" d="m7.61,15.03s.04,0,.07,0c.03,0,.06,0,.09.02-.09.53-.18,1.05-.28,1.58-.03.15-.06.31-.09.46-.03-.07-.08-.12-.16-.07.12-.66.24-1.32.36-1.99Z"/><path class="cls-65" d="m8.34,12.6c-.06.02-.13.1-.19,0,.17-.55.34-1.1.52-1.64.07.06.05.25.22.16-.27.4-.35.86-.49,1.31-.02.06-.04.12-.06.19Z"/><path class="cls-42" d="m22.83,9.62c-.04-.1-.1-.11-.2-.1-.1,0-.22.09-.31-.02,0-.13,0-.25,0-.4.04.05.07.1.13.18.01-.18.02-.31.03-.45.09-.02.18-.04.27-.06.14.27.16.56.08.85Z"/><path class="cls-125" d="m23.84,15.34s-.06.09-.09.13c-.07-.32-.14-.65-.21-.97-.08-.38-.17-.76-.26-1.14,0-.04-.01-.09-.02-.13.03-.03.06-.07.09-.1.06.23.12.47.17.7.11.5.22,1.01.32,1.51Z"/><path class="cls-80" d="m7.24,17.01c.08-.05.13,0,.16.07-.06.47-.12.93-.18,1.4,0-.03-.01-.06-.02-.11-.05.04-.09.07-.13.1,0,0-.03-.02-.04-.03.07-.48.14-.95.21-1.43Z"/><path class="cls-120" d="m23.41,10.99c.1.2.14.42.12.64-.13.04-.18,0-.19-.14,0-.07-.03-.13-.05-.2l-.25-1.03s.02-.05.03-.07c.09.22.18.45.27.67.02.04.04.08.06.11Z"/><path class="cls-98" d="m6.97,17.47s-.04-.04-.06-.06c.05-.28.1-.57.15-.85.09-.48.18-.95.27-1.43.01-.07.02-.14.03-.21.02.03.04.06.06.09-.12.67-.25,1.34-.37,2.01-.03.15-.06.31-.08.46Z"/><path class="cls-125" d="m5.78,17.44c-.07.43-.15.86-.22,1.28-.02,0-.03,0-.05,0-.01-.02-.02-.05-.04-.07.06-.39.12-.79.18-1.18.04-.01.08-.02.13-.03Z"/><path class="cls-101" d="m22.58,10.72c.05-.03.11-.07.16-.1,0-.01.02-.02.03-.03.02.02.04.04.06.07,0,.08-.03.17-.01.24.05.27.12.53.18.79-.03,0-.07-.02-.1-.03-.1-.31-.2-.63-.3-.94Z"/><path class="cls-120" d="m24.29,22.45s.07-.11.07-.1c.07.04.14.08.2.12,0,.17-.02.35-.02.52-.07-.06-.14-.13-.2-.18,0,.04-.02.11-.04.18,0-.18,0-.36,0-.54Z"/><path class="cls-79" d="m8.89,11.11c-.17.09-.15-.1-.22-.16.06-.08.13-.16.19-.24.12.06.23.13.34.19-.1.07-.21.14-.31.2Z"/><path class="cls-48" d="m23.35,13.12s-.06.07-.09.1c-.07-.3-.14-.61-.21-.91.02-.04.04-.09.06-.13.08.31.16.63.24.94Z"/><path class="cls-122" d="m5.21,20.37c.05.07.1.15.15.22,0,.04,0,.08,0,.12,0,0-.02,0-.03,0-.05.1-.1.21-.16.33-.02-.06-.04-.1-.05-.15.03-.17.06-.35.09-.52Z"/><path class="cls-53" d="m23.07,13.03c-.02.05-.04.1-.06.15-.06-.28-.12-.57-.19-.85.02,0,.05,0,.07,0,.06.23.12.47.18.7Z"/><path class="cls-42" d="m22.9,12.33s-.05,0-.07,0c-.07-.27-.14-.54-.2-.81,0-.03.01-.06.02-.09.05.13.11.27.15.4.04.16.07.32.1.49Z"/><path class="cls-74" d="m23.1,12.18s-.04.09-.06.13c-.05-.22-.1-.43-.16-.65.03,0,.07.02.1.03.04.16.08.33.12.49Z"/><path class="cls-53" d="m22.74,8.77c-.09.02-.18.04-.27.06-.02-.07-.04-.14-.06-.21.07-.01.15-.02.22-.03.04.06.07.12.11.19Z"/><path class="cls-69" d="m10.02,11.11c-.21-.07-.43-.13-.64-.2,0-.02-.01-.04-.02-.06l.08-.03c.2.1.39.2.59.3Z"/><path class="cls-92" d="m22.83,10.65s-.04-.04-.06-.07c.09-.17.18-.34.27-.51.01.04.02.08.04.12-.01.02-.02.05-.03.07-.07.13-.14.26-.21.38Z"/><path class="cls-121" d="m7.15,25.37c.11-.1.26-.1.38,0-.13.11-.26.11-.38,0Z"/><path class="cls-121" d="m6.75,25.33s0-.03,0-.03c.08-.02.16-.04.24-.05,0,.03.01.07,0,.08-.08.08-.16.06-.24,0Z"/><path class="cls-8" d="m12.36,25.08c-.52-.08-1.04-.21-1.52-.42-.11-.05-.21-.12-.31-.19-.02-.08-.04-.16-.06-.24,0-.03,0-.06,0-.09,0-.07,0-.14,0-.22,0-.03,0-.06,0-.09,0-.08,0-.16,0-.24.01-.02.02-.04.03-.07.01-.25.02-.5.04-.76.01-.24.03-.47.05-.71.01.25.01.25.25.19.05-.01.1-.05.15-.07.05-.02.12-.04.17-.02.14.06.2.01.23-.12.01-.04.04-.07.06-.1.07-.03.14-.06.22-.09.09.08.18.12.31.14.24.04.33.16.33.4,0,.38,0,.76,0,1.14,0,.07.02.14.03.21.01.44.02.89.03,1.33Z"/><path class="cls-124" d="m15.49,13.33c.01-.12.02-.24.04-.36.08-.46.37-.71.93-.78.84-.1,1.69-.19,2.53-.29.02,0,.04,0,.06,0,.04.03.09.06.13.1-.02,0-.04.02-.05.02-.77.09-1.53.19-2.3.28-.27.03-.54.06-.78.21-.08.08-.18.15-.22.25-.06.15-.1.32-.11.49-.02.78-.02,1.56-.03,2.34,0,.82,0,1.63,0,2.45,0,.72,0,1.43,0,2.15,0,.21,0,.43,0,.64,0,.37-.02.73-.03,1.1,0,.1,0,.2,0,.29-.02.03-.04.06-.05.09,0-.06,0-.11,0-.17-.01-.28-.02-.55-.03-.83-.01-.34-.02-.69-.03-1.03,0-.44-.02-.88-.02-1.32,0,0,0,0-.01,0-.02.13-.03.27-.05.4-.01-.05-.03-.09-.03-.14-.01-.28-.02-.55-.03-.83,0-.69,0-1.37,0-2.06,0-.07.02-.15.02-.22.02-.52.04-1.05.06-1.57.01-.4.02-.8.03-1.2Z"/><path class="cls-18" d="m16.14,25.32c-.37-.07-.74-.13-1.1-.2.11,0,.11-.07.09-.15,0-.02,0-.04,0-.07,0-.07,0-.14,0-.21,0-.03,0-.06,0-.1-.02-.08-.04-.16-.07-.24.02-.01.04-.03.07-.04-.01-.09-.02-.18-.03-.26.01-.02.02-.04.03-.07,0-.09.05-.2-.07-.27.02-.01.05-.03.07-.04,0,0,.01,0,.01,0,.03-.05.05-.1.08-.16.02-.01.03-.02.05-.04.02.04.03.09.07.12.09.07.23.08.27-.01.05-.15.15-.16.27-.2.11-.04.14,0,.15.09,0,.1.02.19.02.29,0,.13,0,.25,0,.38,0,0,.02,0,.03,0,0-.06,0-.12,0-.18,0,.06.02.13.02.19.02.38.03.76.04,1.14Z"/><path class="cls-8" d="m22.53,23.94c-.28.07-.55.13-.83.2-.02-.56-.03-1.11-.05-1.67.05-.07.09-.14.14-.21.05.57.1,1.15.15,1.72,0,0,0,0,.01,0,0-.27,0-.54,0-.81.01-.13.03-.26.04-.39.01.03.01.07.02.1,0,.09.04.17.14.14.1-.03.23-.04.21-.19-.03-.26-.07-.51-.11-.77-.02-.36-.05-.71-.07-1.07,0-.1-.01-.19-.02-.29.01-.03.02-.06.03-.09.09.82.18,1.64.28,2.46,0,.06.02.12.03.18.02.05.03.14.07.15.08.02.17-.09.17-.19-.02-.21-.04-.42-.05-.63,0-.05,0-.11.02-.17.02.14.04.28.06.42.01.1.07.21.02.32-.01.03.04.09.05.11,0,.09-.02.17-.02.24-.02.04-.04.09-.07.13-.06.03-.13.06-.19.09-.1.06-.12.13-.02.21Zm-.03-.29c.23-.05.25-.07.21-.25-.1.05-.24.07-.21.25Z"/><path class="cls-18" d="m21.37,24.27c-.11.08-.22.16-.34.24-.02-.75-.04-1.49-.06-2.24,0-.27-.02-.53-.02-.8.02-.03.05-.06.04-.09-.05-.15.07-.22.14-.32.04-.05.06-.12.09-.18.02.21.04.41.05.62.02.43.04.87.06,1.3.02.49.03.98.04,1.47Z"/><path class="cls-5" d="m16.08,23.98c0,.06,0,.12,0,.18,0,0-.02,0-.03,0,0-.13,0-.26,0-.38,0-.1-.01-.19-.02-.29,0-.09-.04-.13-.15-.09-.12.04-.22.04-.27.2-.03.09-.18.08-.27.01-.03-.02-.04-.08-.07-.12-.02.01-.03.02-.05.04-.03.05-.05.1-.08.16,0-.08-.01-.16-.02-.25,0-.02,0-.04,0-.06,0-.06.03-.13.03-.19,0-.68,0-1.35.01-2.03,0-.08.01-.15.02-.22,0,.08,0,.16,0,.24v1.51s.02-.07.03-.1c.01-.04.04-.07.06-.11.02.03.05.06.06.09.02.08.02.17.14.16.12-.01.16-.09.16-.2,0-.11,0-.21,0-.32,0-.1,0-.2,0-.29.05.06.09.13.15.18.08.07.13.04.13-.07,0-.05.02-.11.02-.17.01,0,.03,0,.04,0l.05.32c0,.07,0,.14,0,.2,0,.29.01.57.02.86,0,.24,0,.48,0,.73Z"/><path class="cls-14" d="m12.33,23.75c-.01-.07-.03-.14-.03-.21,0-.38,0-.76,0-1.14,0-.24-.08-.36-.33-.4-.12-.02-.22-.06-.31-.14.07-.18.18-.36.21-.54.09-.48.14-.96.21-1.43.06,0,.13,0,.19.02.05,0,.09.03.14.04-.02.52-.04,1.03-.06,1.55-.02.75-.02,1.51-.03,2.26Z"/><path class="cls-16" d="m21.8,19.85c-.2-1.75-.4-3.49-.61-5.24-.05-.44-.1-.88-.15-1.31,0-.05,0-.1.04-.16.05.23.1.45.13.68.2,1.42.39,2.85.58,4.28.07.56.11,1.13.16,1.69-.05.02-.1.04-.15.07Z"/><path class="cls-15" d="m19.91,11.94c.21.07.29.25.33.44.07.31.13.61.17.92.13.94.24,1.89.36,2.83-.05.04-.11.08-.15.14-.03.05-.03.11-.04.17-.01-.06-.03-.12-.03-.18-.15-1.23-.31-2.47-.46-3.7-.02-.19-.07-.37-.24-.49.02-.04.04-.09.06-.13Z"/><path class="cls-99" d="m21.8,19.85s.1-.04.15-.07c.04.33.08.65.12.98.05.4.1.8.15,1.21,0,.03.02.07.03.1.04.26.08.51.11.77.02.15-.11.17-.21.19-.11.03-.14-.06-.14-.14,0-.03,0-.07-.02-.1-.01.13-.03.26-.04.39-.02-.57-.04-1.13-.07-1.7-.02-.48-.05-.96-.08-1.44,0-.06,0-.12,0-.18Z"/><path class="cls-5" d="m14.13,20.4c-.01.47-.03.93-.04,1.4-.02.57-.05,1.13-.08,1.7,0,.03,0,.06,0,.09.19-.01.27-.08.28-.24.02-.29.04-.58.06-.86.01.09.02.18.03.28,0,.22,0,.44,0,.66,0,.04-.04.09-.07.12-.07.05-.15.1-.23.14-.09.04-.11.11-.08.23.13-.08.25-.16.37-.23,0,.01.02.02.03.03-.07.11-.2.17-.32.22-.1.04-.15.1-.13.2,0,.01.02.02.03.03-.05.02-.1.04-.15.06,0-.08.05-.18-.1-.2.12-.04.14-.11.11-.22-.02-.1,0-.2,0-.3.02-.87.04-1.73.07-2.6.01-.39.04-.78.06-1.17,0,.12-.02.25.01.36.02.11.09.21.14.31Z"/><path class="cls-93" d="m14.13,20.4c-.05-.1-.12-.2-.14-.31-.03-.12,0-.24-.01-.36.05-1.13.09-2.26.15-3.39.03-.57.07-1.14.1-1.71.01.05.02.1.03.15-.01,1.08-.02,2.17-.04,3.25-.02.79-.06,1.59-.09,2.38Z"/><path class="cls-45" d="m11.87,11.69c.05,0,.11,0,.16,0,.12.04.24.08.36.13.06.04.12.09.19.11.27.06.55.11.82.16.15.03.3.06.45.09.04.01.08.02.12.03,0,.01,0,.03,0,.04-.23,0-.46,0-.69,0-.18-.04-.36-.08-.54-.11-.02,0-.04.05-.07.07-.05-.02-.09-.04-.14-.05-.38-.12-.55-.03-.66.35,0,.03-.01.06-.02.09-.06.31-.12.61-.18.92-.05-.03-.1-.07-.15-.1.09-.5.13-1.01.38-1.48-.15-.03-.3-.06-.45-.09.04-.01.07-.02.14-.05-.1-.06-.17-.1-.23-.14.15.03.31.05.46.08.02,0,.04-.03.05-.04Z"/><path class="cls-87" d="m12.69,15.13c-.04.69-.09,1.38-.13,2.07-.02.25-.03.5-.05.76-.02-.06-.04-.13-.06-.2-.06.03-.1.05-.15.07-.02-.05-.04-.09-.05-.14,0-.07,0-.13,0-.2.07-.84.14-1.67.21-2.51.03.04.06.09.08.13.04.11.09.14.16.02Z"/><path class="cls-72" d="m12.69,15.13c-.07.12-.12.09-.16-.02-.02-.05-.05-.09-.08-.13,0-.03,0-.05,0-.08.09-.83.19-1.67.28-2.5,0-.06-.04-.13-.07-.2.02-.03.05-.08.07-.07.18.03.36.07.54.11-.26.08-.37.27-.39.52-.04.46-.09.92-.12,1.38-.03.33-.05.66-.07.99Z"/><path class="cls-94" d="m12.24,17.69s.03.08.05.14c.05-.02.09-.04.15-.07.02.07.04.14.06.2-.03.66-.06,1.32-.09,1.98-.05-.01-.09-.03-.14-.04-.06-.01-.13-.01-.19-.02,0-.06,0-.11,0-.17.05-.68.1-1.35.15-2.03Z"/><path class="cls-78" d="m23.99,20.09c-.04-.25-.07-.51-.12-.76-.28-1.64-.56-3.28-.85-4.92-.06-.35-.13-.7-.19-1.04,0-.04.02-.08.03-.12.08.38.17.77.25,1.15.33,1.55.61,3.11.81,4.68.04.28.06.57.09.85,0,.05.02.11.03.16-.02,0-.04,0-.06,0Z"/><path class="cls-84" d="m15.19,21.18c0-.08,0-.16,0-.24.01-.59.02-1.18.03-1.77,0,.04,0,.08,0,.12,0,.04,0,.08,0,.12.05-.38-.02-.76.05-1.13.01,0,.03,0,.04,0,.01.04.03.07.04.11,0,.28.02.55.03.83,0,.05.02.09.03.14,0,.31,0,.63,0,.95.03-.01.06-.02.09-.03.01.34.02.69.03,1.03-.01-.19-.11-.3-.3-.35-.02.08-.04.15-.06.22Z"/><path class="cls-94" d="m20.59,16.44c.01-.06,0-.12.04-.17.03-.05.1-.09.15-.14.06.46.12.92.17,1.39.04.35.07.69.1,1.04,0,0,0,0,0,.01,0,0-.01,0-.01,0-.02-.15-.15-.13-.25-.16-.03-.33-.06-.65-.09-.98-.03-.33-.06-.66-.09-1Z"/><path class="cls-25" d="m20.77,18.42c.1.02.23,0,.25.16,0,0,0,0,.01,0,0,0,0,0,0-.01.03.33.06.65.09.98-.03.13-.04.27-.08.39-.03.07-.11.13-.16.19-.04-.57-.08-1.14-.12-1.71Z"/><path class="cls-6" d="m20.89,20.12c.06-.06.13-.12.16-.19.04-.12.06-.26.08-.39.03.45.06.89.09,1.34-.03.06-.05.12-.09.18-.07.1-.19.17-.14.32,0,.02-.03.06-.04.09-.02-.45-.04-.89-.06-1.34Z"/><path class="cls-97" d="m15.37,18.39s-.03-.07-.04-.11c-.01,0-.03,0-.04,0-.07.37,0,.75-.05,1.13,0-.04,0-.08,0-.12,0-.04,0-.08,0-.12.03-1.07.05-2.13.08-3.2,0-.03.01-.06.02-.09.02.15.04.29.07.44,0,.69,0,1.37,0,2.06Z"/><path class="cls-106" d="m21.79,22.26c-.05.07-.09.14-.14.21-.03-.83-.06-1.66-.09-2.49,0,0,.01,0,.02,0,.03.34.07.68.1,1.03.03.39.06.79.09,1.18,0,.02.01.05.02.07Z"/><path class="cls-71" d="m15.38,16.33c-.02-.15-.04-.29-.07-.44.04-.61.07-1.21.11-1.82.02-.25.05-.49.07-.74-.01.4-.02.8-.03,1.2-.02.52-.04,1.05-.06,1.57,0,.07-.02.15-.02.22Z"/><path class="cls-65" d="m23.99,20.09s.04,0,.06,0c.04.27.08.54.12.82.01.08.03.16.07.23v-.35c.03.22.07.44-.02.66-.02.04-.01.09-.01.13-.06-.4-.12-.81-.18-1.21-.01-.09-.02-.19-.03-.29Z"/><path class="cls-107" d="m14.74,23.41s-.07-.04-.07-.05c.02-.52.04-1.04.07-1.56,0,0,0,0,.02-.04,0,.4,0,.77,0,1.13,0,.15,0,.29.01.44-.01.03-.02.06-.03.09Z"/><path class="cls-27" d="m15.13,24.97c.02.08.02.15-.09.15-.14,0-.28,0-.42,0,0-.06.02-.12.03-.18.09,0,.18,0,.27-.01.07.01.14.03.21.04Z"/><path class="cls-19" d="m13.4,12.08c-.27-.05-.55-.1-.82-.16-.07-.02-.13-.07-.19-.11.35.07.71.14,1.06.21-.02.02-.04.04-.05.05Z"/><path class="cls-90" d="m19.91,11.94s-.04.09-.06.13c-.16-.03-.32-.05-.49-.08l.06-.06s-.08-.04-.13-.06c.21-.05.42-.04.62.07Z"/><path class="cls-12" d="m14.37,25.17c-.15.01-.31.02-.46.03.08-.06.16-.12.24-.18.19-.06.2-.05.22.14Z"/><path class="cls-74" d="m13.79,24.58c-.09.01-.17.02-.26.03,0-.01,0-.02,0-.04.09-.02.18-.04.27-.07.05-.02.1-.04.15-.06.13-.06.27-.12.4-.17,0,.01.02.03.02.04-.1.15-.29.18-.45.23-.04.01-.09.02-.13.03Z"/><path class="cls-20" d="m13.83,24.21s.1-.04.15-.06c.12-.07.25-.13.38-.2,0,.12-.01.13-.43.29-.05.02-.1.04-.16.05-.06.01-.12.02-.17.04,0,0,0-.02,0-.03.08-.03.17-.06.25-.09Z"/><path class="cls-66" d="m13.88,24.78c.15-.05.31-.1.46-.16,0,0,.02.02.03.02-.03.04-.06.09-.1.11-.13.05-.26.08-.39.12-.02,0-.04,0-.06,0,0-.02.02-.04.03-.06.01-.01.02-.03.03-.04Z"/><path class="cls-88" d="m15.13,24.6s0,.06,0,.1c-.17-.03-.34-.06-.51-.08v-.05c.17-.04.34-.03.51.04Z"/><path class="cls-99" d="m13.82,24.87s.04,0,.06,0v.18c.1-.01.18-.02.27-.03-.08.06-.16.12-.24.18-.04,0-.08,0-.13,0,0-.1,0-.2,0-.3.01-.01.02-.02.03-.04Z"/><path class="cls-98" d="m22.71,12.79c-.06-.26-.12-.53-.18-.79,0-.02.02-.04.03-.06.06.25.12.51.18.76,0,.03-.02.06-.03.1Z"/><path class="cls-7" d="m13.4,12.08s.04-.04.05-.05c.18.03.37.06.59.1-.09.02-.14.04-.19.05-.15-.03-.3-.06-.45-.09Z"/><path class="cls-70" d="m15.13,23.99s-.02.04-.03.07c-.15-.02-.3-.03-.45-.05,0-.03,0-.06.01-.09.16.02.32.05.47.07Z"/><path class="cls-75" d="m15.13,24.32s-.04.03-.07.04c-.15-.01-.29-.03-.44-.04,0-.02,0-.04,0-.06.17-.04.34,0,.5.07Z"/><path class="cls-54" d="m22.71,12.79s.02-.06.03-.1c.04.18.08.36.12.55,0,.04-.02.08-.03.12-.04-.19-.08-.38-.13-.57Z"/><path class="cls-10" d="m14.37,22.75c-.01-.09-.02-.18-.03-.28,0-.18,0-.36,0-.54.02,0,.04,0,.07,0-.01.27-.02.55-.04.82Z"/><path class="cls-15" d="m15.13,23.68s-.05.03-.07.04c-.13,0-.27-.01-.4-.02,0-.02,0-.05,0-.07.16-.03.31,0,.46.05Z"/><path class="cls-102" d="m14.74,23.41s.02-.06.03-.09c.12.02.24.04.36.06,0,.02,0,.04,0,.06-.13-.01-.26-.02-.39-.03Z"/><path class="cls-53" d="m19.29,11.87s.08.04.13.06l-.06.06c-.06,0-.12,0-.18,0-.04-.03-.09-.06-.13-.1.08-.01.16-.02.24-.03Z"/><path class="cls-26" d="m14.25,14.77s-.02-.1-.03-.15c0-.16,0-.32,0-.48.02,0,.05,0,.07,0-.01.21-.02.42-.04.63Z"/><path class="cls-110" d="m22.55,11.94s-.02.04-.03.06c-.05-.2-.1-.4-.15-.6.01,0,.03,0,.04-.01.05.18.09.37.14.55Z"/><path class="cls-53" d="m15.13,24.97l-.21-.04c-.07-.03-.14-.06-.21-.09.14.02.28.04.43.06,0,.02,0,.04,0,.07Z"/><path class="cls-13" d="m13.76,24.29c.05-.02.1-.04.16-.05,0,.07.02.14.03.21-.05.02-.1.04-.15.06-.01-.07-.02-.14-.03-.22Z"/><path class="cls-24" d="m13.88,24.78s-.02.03-.03.04c-.02,0-.04,0-.06,0,0-.08,0-.16,0-.24.04-.01.09-.02.13-.03-.01.08-.02.16-.03.23Z"/><path class="cls-12" d="m22.19,20.62s-.02.06-.03.09c-.02-.2-.05-.41-.07-.61.01,0,.03,0,.04,0,.02.17.04.35.06.52Z"/><path class="cls-67" d="m13.79,24.81s.04,0,.06,0c0,.02-.02.04-.03.06-.01.01-.02.02-.03.04-.11.01-.22.02-.33.03,0-.01,0-.02,0-.04.11-.03.22-.06.33-.09Z"/><path class="cls-94" d="m22.74,23.63s.04-.09.07-.13c.03-.01.05-.02.1-.04-.04.13-.2.24,0,.35-.04.02-.09.03-.13.05,0-.08-.02-.15-.02-.23Z"/><path class="cls-67" d="m14.71,24.84c.07.03.14.06.21.09-.09,0-.18,0-.27.01-.06,0-.12,0-.18.01v-.03c.08-.03.16-.05.24-.08Z"/><path class="cls-29" d="m22.41,8.62c.02.07.04.14.06.21,0,.13-.02.27-.03.45-.06-.08-.09-.13-.13-.18,0,.14,0,.27,0,.4-.02.06-.04.11-.07.18-.03-.08-.05-.14-.08-.21-.09-.29-.3-.47-.52-.66.19.23.36.46.43.75-.02.18-.04.35-.05.53-.02,0-.04,0-.06,0,.03-.2.03-.4-.08-.58-.15-.2-.28-.41-.45-.58-.14-.14-.33-.24-.49-.36-.21-.13-.43-.26-.64-.39-.27-.1-.55-.2-.82-.3-.3-.07-.61-.14-.91-.21-.51-.04-1.02-.08-1.52-.12,0,0,0-.01,0-.02.4-.02.81-.05,1.21-.07.28.02.56.03.83.08.41.07.81.17,1.21.26.13.05.26.1.4.15l.66.34s.01-.03.02-.04c-.22-.11-.43-.22-.65-.33-.12-.05-.24-.1-.37-.15-.03,0-.06,0-.09-.02-.63-.24-1.28-.35-1.95-.38-.71-.06-1.41-.06-2.12.02,0-.02,0-.05,0-.07.4-.06.81-.11,1.21-.17h1.42c-.15-.04-.31-.07-.46-.07-.42,0-.85,0-1.27,0-.61.07-1.22.13-1.86.21.09-.03.15-.06.21-.08.07-.02.13-.04.2-.06,1.51-.43,3.02-.33,4.51.1.62.18,1.21.45,1.72.85.2.15.35.36.53.54Z"/><path class="cls-29" d="m10.23,8.82c.46.25.96.41,1.47.52.47.1.95.18,1.43.27.03,0,.05.02.08.05h-.9s0,.01,0,.02c.35.04.7.08,1.05.12.11.01.23.02.34.03-.03.02-.06.06-.08.06-.24,0-.48,0-.72,0,0,0,0,.01,0,.02.27.04.53.07.8.11-.15.02-.3.04-.45.06-.5-.01-1.01-.02-1.51-.04-.29-.04-.57-.08-.86-.12-.15-.03-.3-.06-.45-.09-.12-.04-.25-.08-.37-.12-.18-.08-.36-.13-.53-.23-.23-.14-.45-.3-.67-.46-.09-.07-.11-.17-.02-.26.06,0,.11.01.17.02.25.22.55.34.87.43-.26-.16-.52-.31-.77-.46-.03-.06-.06-.12-.1-.19.01-.02.03-.03.04-.05.19.12.38.24.56.36,0,0,.01-.02.02-.02-.17-.14-.35-.27-.53-.41.07-.08.13-.15.19-.22l.49.36c.15.08.3.16.46.25Z"/><path class="cls-115" d="m13.69,10.02c-.27-.04-.53-.07-.8-.11,0,0,0-.01,0-.02.24,0,.48,0,.72,0,.03,0,.06-.04.08-.06.1-.03.2-.06.3-.09.23-.06.46-.1.69-.18.37-.13.73-.27,1.09-.42.58-.25,1.16-.51,1.73-.79.2-.1.45-.13.56-.38.03-.06.15-.07.22-.11.34.08.69.16,1.03.25-.02.06-.04.12-.06.18-.13-.03-.27-.06-.4-.1-.07-.02-.14-.05-.18-.06-.08.09-.13.16-.19.2-.26.15-.52.29-.78.43-.17.09-.34.17-.52.25-.3.14-.59.27-.89.41-.06.03-.1.08-.16.11-.38.14-.75.29-1.13.42-.23.08-.47.12-.71.16-.06.01-.17,0-.2-.05-.06-.09-.13-.07-.2-.06-.08,0-.15.02-.23.03Z"/><path class="cls-34" d="m19.33,8.11c-.34-.08-.69-.16-1.03-.25-.13-.02-.26-.04-.38-.06,0-.01,0-.03,0-.04.19.01.39.03.58.04.08.01.17.02.25.04.23.05.47.11.7.17.25.1.51.2.76.31.23.14.47.28.7.42.31.26.62.53.79.91.06.19.13.38.06.57-.04.09-.1.17-.15.25.02-.1.04-.21.06-.31.03-.26-.02-.49-.18-.7-.13-.23-.3-.41-.52-.54-.19-.12-.38-.25-.58-.37-.23-.11-.47-.22-.7-.33-.12-.04-.24-.08-.37-.12Z"/><path class="cls-31" d="m10.02,8.37c.61.39,1.26.67,1.94.88-.58-.09-1.15-.21-1.68-.48-.15-.1-.3-.2-.46-.31-.05-.05-.1-.1-.15-.15.03-.07.07-.06.13-.03.07.04.14.06.22.08Z"/><path class="cls-42" d="m9.29,8.22c-.06.07-.12.14-.19.22.18.14.35.28.53.41,0,0-.01.02-.02.02-.19-.12-.38-.24-.56-.36-.01.02-.03.03-.04.05.03.06.06.12.1.19-.03.01-.07.02-.1.03-.06,0-.11-.01-.17-.02-.03-.05-.06-.09-.1-.14,0-.03,0-.06,0-.09.17-.12.35-.24.52-.37.01.02.02.04.03.06Z"/><path class="cls-127" d="m20.3,7.77c-.4-.09-.81-.19-1.21-.26-.27-.05-.55-.05-.83-.08.1,0,.19-.02.29-.03v-.02c-.07-.02-.14-.03-.21-.05.67.03,1.32.14,1.95.38.03.01.06.01.09.02-.02.01-.05.02-.07.03Z"/><path class="cls-117" d="m19.45,8.01c-.23-.06-.47-.11-.7-.17-.08-.02-.17-.03-.25-.04.01,0,.03-.02.04-.03-.09-.06-.02-.09.03-.12.3.07.61.14.91.21-.01.05-.02.1-.03.15Z"/><path class="cls-36" d="m10.91,7.86c-.04-.18.01-.31.12-.41.27-.26.61-.34.96-.39-.41.19-.83.35-1.08.8Z"/><path class="cls-92" d="m9.29,8.22s-.02-.04-.03-.06c.09-.05.18-.1.27-.14.02,0,.06.02.09.03-.04.03-.08.06-.13.1.07.06.13.12.19.18.05.05.1.1.15.15-.02.04-.03.07-.05.11l-.49-.36Z"/><path class="cls-112" d="m17.1,7.06c.42,0,.85-.01,1.27,0,.16,0,.31.03.46.07h-1.42c.06-.01.11-.03.17-.04,0,0,0-.01,0-.02h-.49Z"/><path class="cls-11" d="m9.68,8.32c-.06-.06-.12-.11-.19-.18.05-.04.09-.07.13-.1.13.11.27.22.4.33-.07-.03-.15-.04-.22-.08-.06-.03-.1-.04-.13.03Z"/><path class="cls-63" d="m9.78,8.58s.03-.07.05-.11c.15.1.3.2.46.31-.02.02-.03.04-.05.05-.15-.08-.3-.16-.46-.25Z"/><path class="cls-23" d="m8.73,8.52s0,.06,0,.09c-.08.14-.16.28-.25.43-.02-.03-.04-.06-.05-.09.1-.14.2-.29.3-.43Z"/><path class="cls-128" d="m8.43,8.95s.04.06.05.09c0,.06-.01.12-.02.18v.28s-.01,0-.02,0c-.03-.13-.05-.25-.08-.38.02-.06.04-.12.06-.18Z"/><path class="cls-9" d="m11.17,7.6c.2-.11.4-.21.6-.32,0,.02.02.04.03.05-.2.1-.4.2-.61.31,0-.01-.02-.03-.02-.04Z"/><path class="cls-95" d="m8.52,19.03c.06-.51.13-1.02.19-1.52.02,0,.04-.02.05-.02.16.01.32.06.47.03.33-.08.65-.15.99-.07-.08,1.04-.16,2.09-.24,3.13-.04-.11-.19-.16-.15-.31,0-.18,0-.36,0-.54.01-.09.02-.19.03-.28l.07-.56s-.02,0-.03,0c-.01.12-.03.24-.04.36-.11-.06-.22-.11-.31-.19-.18-.13-.35-.11-.53-.01-.14.08-.39.07-.49-.02Z"/><path class="cls-17" d="m10.22,17.44c-.34-.07-.66,0-.99.07-.15.03-.31-.02-.47-.03-.02,0-.04.01-.05.02.05-.35.1-.71.15-1.06.03.04.07.12.1.12.15,0,.29-.02.44-.04,0,0,0,.03,0,.05,0,.08-.01.16-.02.24.01,0,.02,0,.03,0,.05-.19.09-.37.14-.56.16.06.2-.1.29-.17.04-.03.08-.07.13-.08.06-.02.13-.02.18-.05.1-.07.17-.07.22.06-.05.48-.1.95-.15,1.43Z"/><path class="cls-25" d="m8.52,19.03c.1.09.35.1.49.02.18-.1.35-.12.53.01.1.07.21.12.31.19,0,.07,0,.14,0,.21-.01.09-.02.19-.03.28-.01.04-.03.07-.03.11-.02.25-.04.49-.07.74,0-.01-.01-.03-.02-.04,0-.27-.08-.23-.27-.23-.06,0-.12-.03-.17-.05-.19-.09-.36-.11-.56,0-.11.06-.27.02-.41.02.07-.42.14-.83.21-1.25Z"/><path class="cls-82" d="m9.5,12.76c.11-.4.21-.8.32-1.2.03-.11.09-.14.2-.11.38.12.77.22,1.15.33.05.02.1.04.15.06-.21.01-.29.15-.33.34-.1.49-.19.98-.28,1.46-.06-.19-.22-.22-.39-.24.03-.18.07-.37.1-.55.04-.24.08-.49.1-.73,0-.05-.05-.11-.08-.16-.05.03-.12.04-.15.08-.05.07-.09.15-.11.23-.07.2-.14.41-.2.62-.1-.22-.2,0-.28,0-.08-.05-.14-.09-.2-.12Z"/><path class="cls-74" d="m9.5,12.76c.06.04.12.08.2.12.08,0,.18-.22.28,0-.07.36-.15.71-.21,1.07-.07.36-.12.73-.18,1.09-.02-.05-.03-.12-.07-.13-.04-.01-.1.03-.14.05-.02.01-.04.03-.05.05-.08.07-.14.05-.16-.05-.02-.07-.02-.15-.04-.22.09-.53.19-1.05.29-1.58.02-.13.05-.27.08-.4Z"/><path class="cls-86" d="m9.14,14.74c.01.07.02.15.04.22.02.1.07.13.16.05.02-.02.03-.04.05-.05.05-.02.11-.06.14-.05.03.01.05.09.07.13-.02.19-.04.37-.06.56-.04.32-.08.64-.12.96,0-.02,0-.04,0-.05-.15.02-.29.04-.44.04-.03,0-.07-.08-.1-.12.09-.57.18-1.14.27-1.7Z"/><path class="cls-114" d="m11.33,11.84c-.05-.02-.1-.04-.15-.06.04-.04.07-.07.11-.11,0-.01-.02-.03-.02-.04.03,0,.06.02.1.03.06.04.13.08.23.14-.07.02-.11.03-.14.05-.04,0-.08,0-.11,0Z"/><path class="cls-41" d="m18.87,8.19c.13.03.27.06.4.1.13.06.26.12.39.18.15.09.31.18.46.27.18.14.36.28.55.43.11.15.23.3.34.46.04.2.08.4.11.61-.09.38-.35.61-.69.78-.56.27-1.17.4-1.78.52-1.05.2-2.1.25-3.16.2-.05,0-.1-.01-.17-.02.04-.04.06-.06.1-.1-.31-.02-.62-.04-.92-.05,0-.01,0-.02,0-.03.17-.04.33-.08.5-.12,0-.01,0-.02,0-.03-.05,0-.1,0-.15,0-.65-.01-1.31,0-1.96-.04-.52-.03-1.03-.11-1.52-.3-.14-.05-.26-.16-.39-.24-.06-.04-.12-.07-.19-.09-.08-.03-.17-.06-.25-.11l.18.02c-.22-.18-.49-.22-.74-.3.03-.01.05-.02.08-.03.14.01.28.02.42.03.19.02.39.04.58.06.33.03.67.06,1,.1.18.01.36.03.54.04.93.04,1.85,0,2.77-.11.32-.04.65-.08.97-.12.28-.04.57-.08.85-.12-.2.07-.4.14-.61.21-.04,0-.08.01-.12.02-1.37.32-2.75.47-4.15.38-.18-.01-.35,0-.53,0,.15.03.31.05.47.05,1.08.05,2.16.01,3.23-.13.41-.05.81-.15,1.22-.23.76-.15,1.47-.4,2.13-.81.01.01.03.03.04.04-.11.16-.21.32-.32.49-.14.12-.29.24-.43.36-.12.07-.24.14-.36.21-.34.13-.68.27-1.01.4.38-.04.74-.16,1.11-.27.1-.04.2-.08.31-.12.21-.13.41-.26.62-.39.27-.22.42-.5.46-.84.01,0,.03,0,.04,0,0,.14,0,.27.01.41-.15.5-.58.74-.95,1.04.45-.2.86-.45,1.09-.92.16-.25.16-.52.07-.8.01,0,.02,0,.04-.01.05.13.1.26.14.38-.04.23-.08.47-.13.7-.23.42-.58.71-.98.96.04,0,.08,0,.11,0,.27-.14.55-.27.81-.44.22-.14.41-.33.51-.58.13-.27.14-.55,0-.82-.14-.19-.28-.39-.41-.58-.01-.02-.02-.03-.06-.08.09.04.14.07.19.09.2.16.39.32.62.42-.09-.26-.29-.4-.5-.54-.12-.07-.24-.14-.36-.21-.03-.02-.06-.04-.09-.06-.11-.05-.22-.1-.33-.16-.08-.04-.16-.08-.25-.12Z"/><path class="cls-100" d="m10.08,10.26s-.05.02-.08.03c-.1-.04-.21-.06-.29-.12-.16-.11-.31-.24-.45-.37-.09-.08-.16-.17-.24-.26-.02-.02-.04-.05-.06-.07-.1-.09-.21-.17-.31-.26-.06-.05-.12-.09-.17,0,0-.06.01-.12.02-.18.08-.14.16-.28.25-.43.03.05.06.09.1.14-.09.09-.08.19.02.26.22.16.44.32.67.46.16.1.35.16.53.23,0,.04.01.09,0,.13-.01.14.15.27.03.41Z"/><path class="cls-77" d="m21.13,10.23c-.04-.2-.08-.4-.11-.61.13,0,.25-.02.35-.13.02-.03.09-.01.14-.02.16.21.21.44.18.7-.13-.08-.24-.02-.34.06-.07.06-.14.09-.21,0Z"/><path class="cls-126" d="m24.3,16.96c.02-.2.26-.19.34-.34,0-.01.1.03.16.04,0-.02,0-.05.01-.08.06.33.12.66.17.99.1.76.2,1.52.3,2.27-.07-.03-.13-.07-.2-.09-.08-.03-.15-.05-.23-.08-.02.09-.04.17-.06.26-.02-.14-.04-.29-.07-.43-.05-.32-.1-.63-.15-.95-.03-.18-.05-.36-.08-.54-.06-.35-.13-.71-.19-1.06Z"/><path class="cls-111" d="m24.79,19.94c.02-.09.04-.17.06-.26.08.03.16.05.23.08.07.03.13.06.2.09.05.42.1.84.15,1.26.03.23.06.46.09.68-.17.2-.34.41-.51.61-.03-.38-.05-.76-.08-1.14-.04-.44-.09-.89-.13-1.33Z"/><path class="cls-37" d="m24.3,16.96c.06.35.13.7.19,1.06.03.18.05.36.08.54-.04,0-.08,0-.12.01-.09-.53-.18-1.07-.28-1.6-.1-.55-.22-1.09-.33-1.63-.11-.51-.21-1.01-.32-1.51-.05-.23-.11-.47-.17-.7-.08-.31-.16-.63-.24-.94-.04-.16-.08-.33-.12-.49-.06-.26-.12-.53-.18-.79-.01-.08,0-.16.01-.24.07-.13.14-.26.21-.38l.25,1.03s0,0-.01,0c0,0-.01,0-.01,0-.04-.08-.07-.15-.11-.23-.05-.13-.11-.25-.16-.38-.02,0-.04,0-.06,0,0,.1-.02.2,0,.29.06.28.13.56.2.84.15.59.3,1.19.45,1.78.05.26.11.51.16.77.17.82.34,1.63.51,2.45,0,.04.02.09.04.13Z"/><path class="cls-38" d="m25.51,21.79c-.03-.23-.06-.45-.09-.68-.05-.42-.1-.84-.15-1.26-.1-.76-.19-1.52-.3-2.27-.05-.33-.11-.66-.17-.99-.07-.42-.13-.84-.2-1.26.01,0,.02,0,.03,0,.05.21.12.41.16.62.21,1.21.42,2.42.61,3.64.09.54.12,1.1.2,1.64.03.21-.01.39-.1.57Z"/><path class="cls-60" d="m23.59,13.61c-.15-.59-.31-1.19-.45-1.78-.07-.28-.14-.56-.2-.84-.02-.09,0-.19,0-.29.02,0,.04,0,.06,0,.05.13.11.25.16.38.03.08.07.16.11.23,0,0,0,0,.01,0,0,0,0,0,.01,0,.02.07.05.13.05.2,0,.13.06.18.19.14.03.58.06,1.17.08,1.75,0,.07-.01.15-.02.23Z"/><path class="cls-40" d="m24.45,18.57s.08,0,.12-.01c.05.32.1.63.15.95.02.14.04.29.07.43.04.44.09.89.13,1.33.03.38.05.76.08,1.14-.04.03-.08.06-.12.09-.02-.15-.04-.3-.06-.44-.1-1.02-.21-2.03-.31-3.05-.01-.15-.04-.29-.06-.44Z"/><path class="cls-29" d="m19.18,12c.06,0,.12,0,.18,0,.16.03.32.05.49.08.17.12.22.3.24.49.15,1.23.31,2.47.46,3.7,0,.06.02.12.03.18.03.33.06.66.09,1,.03.33.06.65.09.98.04.57.08,1.14.12,1.71.02.45.04.89.06,1.34,0,.27.02.53.02.8.02.75.04,1.49.06,2.24-.03.02-.06.05-.09.07-.01-.04-.03-.09-.03-.13-.01-.32-.02-.65-.03-.97,0-.09-.02-.17-.02-.26-.01-.23-.02-.47-.03-.7-.04-.92-.08-1.84-.13-2.76,0-.19-.03-.37-.05-.56-.01-.08-.03-.17-.03-.25-.07-.84-.12-1.68-.2-2.52-.07-.73-.17-1.46-.26-2.19-.02-.16-.04-.32-.06-.49-.01,0-.03,0-.04,0,.02.19.05.39.07.58.01.14.02.28.03.42.13,1.45.27,2.9.4,4.35,0,.05,0,.1,0,.15.04.88.08,1.77.12,2.65.02.45.02.91.03,1.37,0,.47,0,.94,0,1.4-.41.13-.81.26-1.24.4.17-.19.31-.34.45-.5.01-.02.01-.04,0-.09-.07.08-.14.16-.21.23-.37.36-.84.48-1.33.53-.74.09-1.48.12-2.23.06-.01-.38-.03-.76-.04-1.14,0-.06-.01-.13-.02-.19,0-.24,0-.48,0-.73,0-.29-.01-.57-.02-.86,0-.07,0-.14,0-.2,0-.42-.02-.84-.03-1.26,0-.67,0-1.33,0-2,0-.13-.01-.25-.02-.38,0-.88,0-1.76-.01-2.64,0-.11-.01-.22-.02-.33h0c0-.07,0-.15,0-.23-.02-.8-.04-1.6-.06-2.4,0-.17.03-.32.15-.44.24-.16.51-.18.78-.21.77-.09,1.53-.19,2.3-.28.02,0,.04-.02.05-.02Zm.49,11.9c.18-.14.28-.34.35-.56-.14.18-.28.35-.42.53-.04.04-.09.07-.12.11-.24.3-.55.48-.92.58-.19.05-.39.1-.58.15.35.19,1.37-.31,1.69-.81Zm-1.98,1.16c.97.14,2.23-.46,2.27-1.11-.55.85-1.38,1.05-2.27,1.11Zm1.58-1.22c-.13.08-.25.18-.38.25-.13.07-.27.11-.4.17.33-.02.59-.15.78-.42Z"/><path class="cls-3" d="m7.02,23.08c-.01-.08,0-.17-.04-.23-.02-.04-.1-.04-.17-.06v-.11c.07-.02.13-.04.2-.04.2-.01.22-.2.34-.3.05-.04.11-.08.17-.12.03-.02.06-.05.08-.08.08-.16.1-.17.25-.08.02.01.04.02.09.03.01-.28.22-.23.39-.23.13,0,.25,0,.38,0,.09,0,.19-.04.27-.08.14-.08.25-.05.37.11.08-.09.16-.17.26-.28.03.09.04.14.06.19,0,.46,0,.93,0,1.39,0,.22.02.43.02.65,0,.03,0,.06,0,.09,0,.07,0,.14,0,.21-.78-.14-1.53-.36-2.23-.74-.16-.09-.31-.21-.46-.31Z"/><path class="cls-129" d="m20.86,23.22c0,.09.02.17.02.26.01.32.02.65.03.97,0,.04.02.09.03.13-.08.04-.17.08-.25.11,0-.47,0-.94,0-1.4.03-.04.06-.07.08-.1.03.01.05.02.07.03Z"/><path class="cls-31" d="m9.71,24.14c0-.07,0-.14,0-.21.13.04.26.09.39.13l-.03.17c-.12-.03-.24-.06-.36-.09Z"/><path class="cls-35" d="m10.08,24.22l.03-.17c.12.06.24.12.37.19.02.08.04.16.06.24-.15-.08-.3-.17-.46-.25Z"/><path class="cls-28" d="m22.74,23.63c0,.08.02.15.02.23-.08.03-.15.05-.23.08-.1-.08-.08-.15.02-.21.06-.04.13-.06.19-.09Z"/><path class="cls-39" d="m9.71,23.84c0-.22-.02-.43-.02-.65,0-.46,0-.93,0-1.39.01-.36.02-.71.04-1.07,0-.05.02-.1.02-.15.02-.25.04-.49.07-.74,0-.04.02-.07.03-.11,0,.18,0,.36,0,.54,0,.04-.02.09-.02.13-.02.74-.05,1.49-.07,2.23,0,.2-.02.4-.02.61,0,.05-.04.15.08.11,0,.05,0,.1,0,.15-.09-.02-.05.05-.06.09-.01.07-.02.14-.04.22,0,0,0,.02,0,.03Z"/><path class="cls-52" d="m5.88,17.51s-.06-.09-.1-.13c.14-.63.28-1.26.43-1.89.17-.7.34-1.39.52-2.09,0-.04.04-.06.06-.1,0,.03.02.07.02.1.03-.02.07-.03.09-.06.03-.04.04-.09.06-.14.01.04.02.08.03.12,0,.03-.02.07-.03.1-.22.76-.45,1.52-.66,2.29-.16.59-.29,1.19-.43,1.78Z"/><path class="cls-61" d="m6.97,13.21s-.04.1-.06.14c-.02.03-.06.04-.09.06,0-.03-.02-.07-.02-.1.03-.11.06-.21.08-.32.01-.05.03-.11.04-.16,0-.01.02-.02.03-.03.16-.52.33-1.04.49-1.56.05-.13.1-.26.15-.39,0,.1.02.19,0,.29-.02.15-.05.29-.08.44-.02.15-.04.29-.05.44,0,0-.02,0-.03,0-.03.04-.08.07-.09.11-.13.37-.25.73-.37,1.1Z"/><path class="cls-57" d="m8.28,10.2c-.07-.02-.14-.04-.21-.06-.05.07-.1.14-.15.21-.05-.02-.1-.04-.15-.06.05-.19.09-.37.15-.59.14.18.25.34.37.5Z"/><path class="cls-121" d="m7.76,10.29c.05.02.1.04.15.06-.13.4-.27.81-.4,1.21.03-.15.06-.29.08-.44.01-.09,0-.19,0-.29.06-.18.12-.36.18-.54Z"/><path class="cls-30" d="m7.43,11.23c-.16.52-.33,1.04-.49,1.56,0,.01-.02.02-.03.03,0,0-.02-.02-.01-.02.16-.51.33-1.02.49-1.53,0-.02.03-.03.04-.04Z"/><path class="cls-29" d="m7.43,12s.02,0,.03,0c-.07.39-.15.79-.22,1.18,0,.04-.02.08-.02.12-.12.49-.25.98-.36,1.47-.1.44-.19.89-.28,1.33-.08.45-.18.9-.25,1.36-.1.58-.17,1.16-.26,1.74-.05.36-.1.71-.15,1.07-.02.12-.02.24-.03.36-.04.41-.08.81-.11,1.22-.01.01-.03.02-.04.03-.03-.08-.06-.16-.08-.24,0-.07.03-.14.02-.21-.02-.27-.16-.5-.3-.73,0-.04,0-.08,0-.12.06-.35.11-.7.17-1.04.11-.65.23-1.3.34-1.95,0-.02,0-.05,0-.08.14-.6.27-1.19.43-1.78.21-.77.44-1.53.66-2.29,0-.03.02-.07.03-.1.14-.45.29-.89.43-1.34Z"/><path class="cls-92" d="m7.37,14.92c-.01.07-.02.14-.03.21-.12-.05-.24-.1-.36-.15.01-.09.03-.18.05-.27.1-.44.19-.88.29-1.32.08-.36.16-.73.24-1.09.02-.1.03-.21.06-.33.21.19.29.41.24.66-.08.4-.18.8-.27,1.2-.08.36-.14.72-.21,1.09Z"/><path class="cls-100" d="m7.31,13.4c-.1.44-.19.88-.29,1.32-.02.09-.03.18-.05.27-.02.07-.04.14-.06.22-.06.26-.12.53-.18.79-.05.04-.11.08-.16.12.09-.44.18-.89.28-1.33.11-.49.24-.98.36-1.47.03.03.06.06.09.1Z"/><path class="cls-34" d="m7.91,10.87c.09-.18.18-.36.28-.53.05-.08.11-.08.15-.02-.11.19-.21.37-.31.55-.11.27-.22.54-.33.81-.01,0-.02,0-.04-.01.08-.26.16-.53.24-.79Z"/><path class="cls-104" d="m5.87,22.16s0-.01,0-.01c-.03-.09-.07-.19-.1-.28.05-.11.05.01.07.02.19.02.13.19.19.3-.07,0-.12-.01-.17-.02Z"/><path class="cls-43" d="m5.78,21.87c.03.09.07.19.1.28-.16-.19-.32-.37-.47-.56.02-.01.03-.03.05-.04.09.11.18.22.27.34.01-.01.03-.02.04-.03,0,0,.01,0,.02.01Z"/><path class="cls-80" d="m6.57,16.1c.05-.04.11-.08.16-.12-.02.15-.04.3-.06.46-.08.44-.16.87-.24,1.31-.05.24-.1.47-.15.71-.02.1.03.16.14.16.09,0,.19.01.28.02-.04.17-.07.34-.11.5-.03.15-.07.3-.11.45-.03.1-.09.13-.16.04-.1-.13-.18-.28-.26-.42.09-.58.17-1.16.26-1.74.07-.45.17-.91.25-1.36Z"/><path class="cls-67" d="m6.42,17.75c.08-.44.16-.87.24-1.31.13.04.26.08.39.12-.05.28-.1.57-.15.85-.01.04-.02.08-.03.12-.11.16-.29.18-.46.21Z"/><path class="cls-101" d="m6.42,17.75c.17-.04.34-.06.46-.21-.06.37-.12.73-.18,1.1-.09,0-.19-.02-.28-.02-.12,0-.16-.06-.14-.16.04-.24.1-.47.15-.71Z"/><path class="cls-91" d="m21.71,9.65c-.18-.38-.48-.65-.79-.91.01-.06.02-.12.03-.18.17.12.35.22.49.36.17.17.3.39.45.58-.06.05-.12.1-.18.15Z"/><path class="cls-73" d="m22.08,9.56c-.07-.29-.24-.52-.43-.75.22.18.43.37.52.66-.03.03-.06.06-.09.09Z"/><path class="cls-90" d="m5.36,20.7c.14.23.28.46.3.73,0,.07-.01.14-.02.21-.07-.09-.12-.2-.2-.28-.19-.2-.11-.44-.1-.66,0,0,.02,0,.03,0Z"/><path class="cls-72" d="m7.06,16.56c-.13-.04-.26-.08-.39-.12.02-.15.04-.3.06-.46.06-.26.12-.53.18-.79.02-.07.04-.14.06-.22.12.05.24.1.36.15-.09.48-.18.95-.27,1.43Z"/><path class="cls-124" d="m12.24,17.69c-.05.68-.1,1.35-.15,2.03,0,.06,0,.11,0,.17-.07.48-.12.96-.21,1.43-.03.19-.14.36-.21.54-.07.03-.14.06-.22.09-.08-.1-.19-.18-.24-.3-.07-.15-.11-.33-.13-.5-.03-.51-.04-1.03-.06-1.54.02-.37.04-.73.06-1.1.04-.46.08-.91.12-1.37,0-.02.02-.05.02-.07.06-.62.13-1.23.19-1.85.08-.57.16-1.14.24-1.71.06-.31.12-.61.18-.92,0-.03.01-.06.02-.09.11-.39.28-.48.66-.35.05.02.1.03.14.05.02.07.07.13.07.2-.09.83-.18,1.67-.28,2.5,0,.02,0,.05,0,.08-.07.84-.14,1.67-.21,2.51,0,.07,0,.13,0,.2Z"/><path class="cls-29" d="m11.33,11.84s.08,0,.11,0c.15.03.29.06.45.09-.25.47-.3.98-.38,1.48-.1.66-.2,1.32-.3,1.97-.06.48-.12.96-.18,1.44-.06.59-.12,1.18-.18,1.76-.04.46-.08.91-.12,1.37,0,.03-.02.06-.02.09-.03.67-.07,1.34-.1,2.01-.02.24-.04.47-.05.71-.02.25-.02.5-.04.76-.11-.06-.22-.12-.33-.18,0-.35.01-.7.02-1.05,0,0-.02-.02-.04-.03-.02.25-.03.49-.05.75-.09-.03-.17-.05-.24-.07.01-.22.03-.44.04-.67.03-.57.05-1.13.07-1.7.08-1.04.16-2.09.24-3.13.05-.48.1-.95.15-1.43.06-.48.12-.95.18-1.43.05-.32.1-.63.15-.95.09-.49.19-.98.28-1.46.04-.18.12-.32.33-.34Z"/><path class="cls-108" d="m10.59,22.07c.03-.67.07-1.34.1-2.01,0-.03.01-.06.02-.09.03.04.07.08.1.12.05.05.11.1.17.14,0-.09,0-.2,0-.3,0-.11,0-.23,0-.34,0,0,.01,0,.02.02,0,0,0,0,0,.01.02.51.03,1.03.06,1.54.01.17.06.34.13.5.05.11.16.2.24.3-.02.03-.05.07-.06.1-.04.13-.09.18-.23.12-.04-.02-.11,0-.17.02-.05.02-.1.05-.15.07-.24.07-.24.06-.25-.19Z"/><path class="cls-44" d="m10.47,23.93c0,.07,0,.14,0,.22-.14-.08-.28-.17-.42-.25,0-.07,0-.13,0-.2l.43.23Z"/><path class="cls-44" d="m10.47,23.6c0,.08,0,.16,0,.24-.13-.08-.26-.16-.4-.24,0-.06,0-.12,0-.17.13.06.26.12.4.17Z"/><path class="cls-127" d="m10.05,23.9c.14.08.28.17.42.25,0,.03,0,.06,0,.09-.12-.06-.24-.12-.37-.19-.13-.04-.26-.09-.39-.13,0-.03,0-.06,0-.09,0,0,0-.02,0-.03.11.03.22.06.33.09Z"/><path class="cls-59" d="m10.08,23.6c.13.08.26.16.4.24,0,.03,0,.06,0,.09-.14-.08-.28-.16-.43-.23-.1-.03-.2-.07-.3-.1,0-.04-.04-.11.06-.09.09.03.18.06.27.09Z"/><path class="cls-20" d="m10.47,23.6c-.13-.06-.26-.12-.4-.17-.05-.02-.1-.05-.15-.07.02-.02.04-.04.06-.06.05,0,.1.02.15.03.01,0,.02.02.04.03.11.06.22.12.33.18-.01.02-.02.04-.03.07Z"/><path class="cls-82" d="m16.05,12.51c-.13.12-.16.28-.15.44.02.8.04,1.6.06,2.4,0,.08,0,.15,0,.23-.02-.18-.03-.35-.05-.53-.02.05,0,.11-.02.15-.04.14-.05.3-.21.38,0-.78.01-1.56.03-2.34,0-.16.05-.33.11-.49.04-.1.15-.17.22-.25Z"/><path class="cls-108" d="m15.19,21.18c.02-.07.04-.14.06-.22.19.05.29.16.3.35.01.28.02.55.03.83-.02.05-.04.1-.05.16-.02.07-.03.14-.04.21.02,0,.05,0,.05,0,.02-.07.03-.13.05-.2.02-.03.04-.06.05-.09,0,.11,0,.21,0,.32,0,.11-.05.19-.16.2-.12.01-.11-.08-.14-.16,0-.03-.04-.06-.06-.09-.02.03-.05.07-.06.11,0,.03,0,.07-.03.1v-1.51Z"/><path class="cls-68" d="m15.68,15.59c.16-.08.16-.24.21-.38.01-.05,0-.1.02-.15.02.18.03.35.05.53,0,0,0,0,0,0,0,.4,0,.8,0,1.2,0,.15-.05.29-.09.44-.04.17-.13.34-.14.52-.02.45,0,.9,0,1.35,0,.21,0,.41,0,.62,0,.16-.02.32-.03.48,0-.72,0-1.43,0-2.15,0-.82,0-1.63,0-2.45Z"/><path class="cls-93" d="m15.68,20.18c0-.16.02-.32.03-.48,0-.21,0-.41,0-.62.08-.08.16-.16.24-.24l.04.02v-.31c0,.13.02.25.02.38,0,.67,0,1.33,0,2,0,0-.02,0-.02,0,0,0,0,0,0-.01,0-.1,0-.21,0-.31-.02,0-.03,0-.05,0-.04.07-.07.14-.11.21-.05.08-.1.08-.15,0,0-.21,0-.43,0-.64Z"/><path class="cls-109" d="m15.68,20.82c.05.08.1.08.15,0,.04-.07.08-.14.11-.21.02,0,.03,0,.05,0,0,.1,0,.21,0,.31,0,0,0,.01,0,.01,0,0,.02,0,.02,0,0,.42.02.84.03,1.26-.02-.11-.03-.21-.05-.32-.01,0-.03,0-.04,0,0,.06-.02.11-.02.17,0,.11-.05.14-.13.07-.06-.05-.1-.12-.15-.18,0-.37.02-.73.03-1.1Z"/><path class="cls-86" d="m15.52,20.28s-.06.02-.09.03c0-.32,0-.64,0-.95.02-.13.03-.27.05-.4,0,0,0,0,.01,0,0,.44.02.88.02,1.32Z"/><path class="cls-5" d="m15.59,22.31c-.01.07-.03.13-.05.2,0,0-.03,0-.05,0,.01-.07.02-.14.04-.21.01-.05.03-.1.05-.16,0,.06,0,.11,0,.17Z"/><path class="cls-34" d="m22.51,23.65c-.02-.18.11-.19.21-.25.03.18.01.2-.21.25Z"/><path class="cls-18" d="m16.05,22.4c0,.29.01.57.02.86,0-.29-.01-.57-.02-.86Z"/><path class="cls-81" d="m11.2,15.39c.1-.66.2-1.32.3-1.97.05.03.1.07.15.1-.08.57-.16,1.14-.24,1.71-.05.04-.09.08-.14.11-.03.02-.05.04-.08.06Z"/><path class="cls-46" d="m20.95,8.55c-.01.06-.02.12-.03.18-.23-.14-.47-.28-.7-.42.03-.05.06-.1.09-.15.21.13.43.26.64.39Z"/><path class="cls-52" d="m20.31,8.16c-.03.05-.06.1-.09.15-.25-.1-.51-.2-.76-.31.01-.05.02-.1.03-.15.27.1.55.2.82.3Z"/><path class="cls-67" d="m20.73,7.89c.22.11.43.22.65.33,0,.01-.01.03-.02.04l-.66-.34s.03-.03.04-.04Z"/><path class="cls-78" d="m20.73,7.89s-.03.03-.04.04c-.13-.05-.26-.1-.4-.15.02-.01.05-.02.07-.03.12.05.24.1.37.15Z"/><path class="cls-125" d="m18.87,8.19c.08.04.16.08.25.12-.24.14-.49.27-.73.41-.38.23-.77.42-1.18.58-.1.04-.2.07-.3.12-.31.15-.62.32-.94.45-.38.14-.77.24-1.15.37-.11.04-.22.11-.34.12-.25.02-.51.03-.76.02-.15,0-.31-.05-.45-.1-.14-.04-.14-.1-.03-.2.15-.02.3-.04.45-.06.08,0,.15-.02.23-.03.07,0,.14-.03.2.06.03.04.13.06.2.05.24-.04.48-.09.71-.16.38-.13.76-.27,1.13-.42.06-.02.11-.08.16-.11.29-.14.59-.27.89-.41.17-.08.35-.16.52-.25.26-.14.52-.28.78-.43.07-.04.11-.12.19-.2.04.01.11.04.18.06Z"/><path class="cls-57" d="m13.24,10.08c-.11.1-.11.15.03.2.15.05.3.09.45.1.25.01.51,0,.76-.02.12-.01.22-.08.34-.12.39-.12.78-.22,1.15-.37.32-.12.63-.3.94-.45.1-.05.2-.08.3-.12.41-.16.8-.35,1.18-.58.24-.14.48-.28.73-.41.11.05.22.1.33.16-.15.07-.31.13-.46.2-.25.12-.49.25-.74.37-.26.13-.53.27-.79.4-.22.1-.44.18-.66.28-.07.03-.13.11-.2.13-.29.1-.58.19-.88.29-.16.05-.31.11-.48.18.07.02.11.04.16.05-.92.11-1.85.15-2.77.11-.18,0-.36-.03-.54-.04,0-.05,0-.1-.03-.13-.07-.13-.2-.19-.33-.23,0,0,0-.02,0-.04.5.01,1.01.02,1.51.04Z"/><path class="cls-64" d="m11.73,10.04s0,.03,0,.04c.14.04.26.1.33.23.02.04.02.09.03.13-.33-.03-.67-.06-1-.1-.23-.09-.29-.21-.21-.43.29.04.57.08.86.12Z"/><path class="cls-58" d="m10.87,9.92c-.08.21-.02.34.21.43-.19-.02-.39-.04-.58-.06-.05-.1-.11-.2-.14-.31-.01-.04.04-.1.06-.15.15.03.3.06.45.09Z"/><path class="cls-54" d="m10.42,9.83c-.02.05-.07.11-.06.15.03.11.09.2.14.31-.14-.01-.28-.02-.42-.03.12-.14-.04-.27-.03-.41,0-.04,0-.09,0-.13.12.04.25.08.37.12Z"/><path class="cls-50" d="m9,8.77s.07-.02.1-.03c.25.15.51.3.77.46-.32-.09-.62-.21-.87-.43Z"/><path class="cls-57" d="m19.66,8.47c-.13-.06-.26-.12-.39-.18.02-.06.04-.12.06-.18.12.04.24.08.37.12-.01.08-.02.16-.03.24Z"/><path class="cls-85" d="m21.5,9.47s-.12,0-.14.02c-.09.11-.22.13-.35.13-.11-.15-.23-.3-.34-.46.06-.04.12-.06.18-.11.05-.04.08-.09.12-.13.22.13.4.31.52.54Z"/><path class="cls-56" d="m20.98,8.93s-.08.09-.12.13c-.05.04-.12.07-.18.11-.18-.14-.36-.28-.55-.43.09-.06.18-.12.27-.18.19.12.38.25.58.37Z"/><path class="cls-47" d="m20.4,8.56c-.09.06-.18.12-.27.18-.15-.09-.31-.18-.46-.27.01-.08.02-.16.03-.24.23.11.47.22.7.33Z"/><path class="cls-106" d="m9.98,23.29s-.04.04-.06.06c-.04,0-.08,0-.12,0-.12.03-.08-.07-.08-.11,0-.2.01-.4.02-.61.02-.74.05-1.49.07-2.23,0-.04.01-.09.02-.13-.04.14.11.2.15.31-.02.57-.05,1.13-.07,1.7-.01.22-.03.44-.04.67,0,.03,0,.07,0,.1-.05.12,0,.2.12.25Z"/><path class="cls-24" d="m9.86,19.45c0-.07,0-.14,0-.21.01-.12.03-.24.04-.36.01,0,.02,0,.03,0l-.07.56Z"/><path class="cls-124" d="m9.41,16.57c.04-.32.08-.64.12-.96.02-.19.04-.37.06-.56.06-.36.11-.73.18-1.09.07-.36.14-.71.21-1.07.07-.21.13-.41.2-.62.03-.08.06-.16.11-.23.03-.04.1-.06.15-.08.03.05.08.11.08.16-.03.25-.06.49-.1.73-.03.18-.07.37-.1.55-.12.45-.24.89-.36,1.34-.13.51-.26,1.02-.4,1.53-.05.19-.09.37-.14.56-.01,0-.02,0-.03,0,0-.08.01-.16.02-.24Z"/><path class="cls-103" d="m9.56,16.26c.13-.51.26-1.02.4-1.53.03,0,.08-.03.1-.02.15.07.27-.01.39-.09.03-.02.07-.03.11-.05-.06.48-.12.95-.18,1.43-.04-.13-.11-.13-.22-.06-.05.03-.12.03-.18.05-.05.02-.09.05-.13.08-.09.07-.13.22-.29.17Z"/><path class="cls-68" d="m10.56,14.58s-.08.03-.11.05c-.12.07-.24.16-.39.09-.03-.01-.07.01-.1.02.12-.45.24-.89.36-1.34.17.02.33.05.39.24-.05.32-.1.63-.15.95Z"/><path class="cls-53" d="m19.65,8.85l.41.58c-.11.06-.22.12-.33.18-.05-.13-.1-.26-.14-.38-.01,0-.02,0-.04.01.1.28.09.55-.07.8-.05-.04-.1-.08-.15-.12,0-.14,0-.27-.01-.41-.01,0-.03,0-.04,0-.03.35-.19.62-.46.84-.08-.06-.15-.13-.23-.19.11-.16.21-.32.32-.49-.01-.01-.03-.03-.04-.04-.66.41-1.38.66-2.13.81-.04-.03-.08-.06-.13-.09.2-.07.4-.14.61-.21.07-.06.12-.13.2-.17.26-.11.52-.2.78-.32.19-.09.36-.22.55-.32.14-.08.29-.14.42-.22.17-.11.21-.11.34.04.04-.1.09-.2.13-.29Z"/><path class="cls-63" d="m19.65,8.85c-.04.1-.09.2-.13.29-.12-.15-.17-.15-.34-.04-.14.08-.29.15-.42.22-.18.1-.36.23-.55.32-.25.12-.52.21-.78.32-.08.03-.14.11-.2.17-.28.04-.57.08-.85.12-.02-.02-.04-.05-.07-.08.13-.05.25-.09.37-.14.22-.11.43-.23.65-.33.3-.14.62-.25.91-.4.22-.11.42-.26.64-.37.18-.1.37-.17.56-.25,0,.01,0,.02,0,.03.03-.07.06-.13.1-.2.12.07.24.14.36.21l-.12.12c-.05-.02-.1-.05-.19-.09.03.05.05.07.06.08Z"/><path class="cls-49" d="m19.55,8.53c-.03.07-.06.13-.1.2,0-.01,0-.02,0-.03-.19.08-.38.15-.56.25-.22.11-.42.26-.64.37-.3.15-.61.26-.91.4-.22.1-.43.22-.65.33-.11.05-.23.09-.37.14.03.03.05.05.07.08-.32.04-.65.08-.97.12-.05-.02-.09-.03-.16-.05.18-.07.33-.13.48-.18.29-.1.59-.19.88-.29.07-.03.13-.1.2-.13.22-.1.44-.18.66-.28.27-.13.53-.26.79-.4.25-.12.49-.25.74-.37.15-.07.3-.13.46-.2.03.02.06.04.09.06Z"/><path class="cls-75" d="m16.62,10.35s.08.06.13.09c-.41.08-.81.18-1.22.23-1.07.14-2.15.18-3.23.13-.16,0-.31-.02-.47-.05.18,0,.35,0,.53,0,1.4.09,2.78-.06,4.15-.38.04,0,.08-.01.12-.02Z"/><path class="cls-74" d="m20.06,10.26c-.1.25-.29.45-.51.58-.26.16-.54.29-.81.44-.03.01-.07.01-.11,0,.4-.25.75-.54.98-.96.14-.05.29-.09.43-.14,0,.02.01.05.02.07Z"/><path class="cls-81" d="m20.06,10.26s-.02-.05-.02-.07c-.14.05-.29.09-.43.14.04-.23.08-.47.13-.7.11-.06.22-.12.33-.18.14.28.13.55,0,.82Z"/><path class="cls-117" d="m19.34,9.93s.1.08.15.12c-.23.47-.64.72-1.09.92.37-.3.8-.54.95-1.04Z"/><path class="cls-48" d="m18.6,10.17c.08.06.15.13.23.19-.21.13-.41.26-.62.39.06-.08.03-.15-.04-.21l.43-.36Z"/><path class="cls-83" d="m19.79,8.86s.08-.08.12-.12c.21.14.41.28.5.54-.24-.1-.43-.26-.62-.42Z"/><path class="cls-123" d="m17.9,10.87c-.36.12-.73.24-1.11.27.34-.13.68-.27,1.01-.4.03.04.06.08.09.13Z"/><path class="cls-55" d="m17.9,10.87s-.06-.08-.09-.13c.12-.07.24-.14.36-.21.07.06.1.13.04.21-.1.04-.2.08-.31.12Z"/><path class="cls-96" d="m15.99,18.56v.31l-.04-.02c-.08.08-.16.16-.24.24,0-.45-.01-.9,0-1.35,0-.17.1-.34.14-.52.04-.14.08-.29.09-.44.01-.4,0-.8,0-1.2,0,.11.02.22.02.33,0,.88,0,1.76.01,2.64Z"/><path class="cls-4" d="m20.86,23.22s-.04-.02-.07-.03c-.02.03-.05.06-.08.1-.01-.46-.01-.91-.03-1.37-.04-.88-.08-1.77-.12-2.65,0-.05,0-.1,0-.15.03.04.05.08.08.12,0-.01,0-.02.01-.03.02.19.04.37.05.56.05.92.09,1.84.13,2.76.01.23.02.47.03.7Z"/><path class="cls-98" d="m20.64,19.21s0,.02-.01.03c-.03-.04-.05-.08-.08-.12-.13-1.45-.27-2.9-.4-4.35-.01-.14-.02-.28-.03-.42.01-.03.02-.06.03-.1.09.73.19,1.46.26,2.19.08.84.14,1.68.2,2.52,0,.09.02.17.03.25Z"/><path class="cls-2" d="m17.69,25.06c.89-.06,1.72-.26,2.27-1.11-.04.66-1.3,1.25-2.27,1.11Z"/><path class="cls-126" d="m19.67,23.9c-.32.5-1.34,1-1.69.81.2-.05.39-.1.58-.15.37-.1.68-.28.92-.58.03-.04.08-.08.12-.11.02,0,.04.02.06.03Z"/><path class="cls-51" d="m19.26,23.83c-.18.27-.45.4-.78.42.13-.06.27-.1.4-.17.13-.07.25-.17.38-.25Z"/><path class="cls-116" d="m19.67,23.9s-.04-.02-.06-.03c.14-.18.28-.35.42-.53-.07.22-.17.41-.35.56Z"/><path class="cls-99" d="m20.15,14.25s-.02.06-.03.1c-.02-.19-.05-.39-.07-.58.01,0,.03,0,.04,0,.02.16.04.32.06.49Z"/><path class="cls-32" d="m9.75,23.59c.1.03.2.07.3.1,0,.07,0,.13,0,.2-.11-.03-.22-.06-.33-.09.01-.07.02-.14.04-.22Z"/><path class="cls-32" d="m9.8,23.35s.08,0,.12,0c.05.02.1.05.15.07,0,.06,0,.12,0,.17-.09-.03-.18-.06-.27-.09,0-.05,0-.1,0-.15Z"/><path class="cls-66" d="m7.43,12c-.14.45-.29.89-.43,1.34-.01-.04-.02-.08-.03-.12.12-.37.24-.74.37-1.1.01-.04.06-.08.09-.11Z"/><path class="cls-21" d="m10.83,18.6c.06-.59.12-1.18.18-1.76.1.01.19.04.18.16,0,.05,0,.1,0,.15-.04.46-.08.91-.12,1.37-.05.13-.14.13-.25.09Z"/><path class="cls-89" d="m10.83,18.6c.11.04.2.05.25-.09-.02.37-.04.73-.06,1.1,0,0,0-.01,0-.01,0,0-.01-.01-.02-.02,0,.11,0,.23,0,.34,0,.1,0,.21,0,.3-.06-.05-.12-.09-.17-.14-.04-.04-.07-.08-.1-.12.04-.46.08-.91.12-1.37Z"/><path class="cls-76" d="m11.21,17.14s0-.1,0-.15c0-.13-.09-.15-.18-.16.06-.48.12-.96.18-1.44.03-.02.06-.04.08-.06.05-.04.09-.08.14-.11-.06.62-.13,1.23-.19,1.85,0,.02-.01.05-.02.07Z"/><path class="cls-13" d="m9.86,23.05s0-.07,0-.1c.07.02.14.04.24.07.02-.26.03-.5.05-.75.02.02.04.02.04.03,0,.35,0,.7-.02,1.05-.01,0-.02-.02-.04-.03,0-.19-.01-.2-.27-.27Z"/><path class="cls-44" d="m9.86,23.05c.26.07.27.08.27.27-.05,0-.1-.02-.15-.03-.12-.04-.17-.12-.12-.25Z"/></g></svg>