<?xml version="1.0" encoding="UTF-8"?><svg id="Layer_3" xmlns="http://www.w3.org/2000/svg" xmlns:xlink="http://www.w3.org/1999/xlink" viewBox="0 0 32 32"><defs><style>.cls-1{fill:url(#linear-gradient);}.cls-1,.cls-2,.cls-3{stroke-width:0px;}.cls-2{fill:url(#linear-gradient-2);}.cls-3{fill:url(#linear-gradient-3);}.cls-4{fill:none;stroke:#54483c;stroke-miterlimit:10;stroke-width:.5px;}</style><linearGradient id="linear-gradient" x1="15.44" y1="1.98" x2="15.57" y2="31.32" gradientUnits="userSpaceOnUse"><stop offset="0" stop-color="#003f2d"/><stop offset="1" stop-color="#000048"/></linearGradient><linearGradient id="linear-gradient-2" x1="15.53" y1="15.06" x2="15.47" y2="23.82" gradientUnits="userSpaceOnUse"><stop offset="0" stop-color="#c7b299"/><stop offset="1" stop-color="#4f4633"/></linearGradient><linearGradient id="linear-gradient-3" x1="15.69" y1="7.33" x2="15.64" y2="14.84" xlink:href="#linear-gradient-2"/></defs><rect class="cls-1" x="-1" width="33" height="32"/><g id="Layer_4"><polygon class="cls-2" points="20 24 11 24 11 15 12.6 15 20 15 20 24"/><path class="cls-3" d="m13,10s0-2.74,3-2.74,2.66,2.74,2.66,2.74v5s-1.12,0-1.12,0v-5s.46-1.69-1.54-1.69-2,1.69-2,1.69v5h-1.4l.4-5Z"/><line class="cls-4" x1="12" y1="17" x2="19" y2="17"/><rect class="cls-4" x="16.5" y="16.5" width="1" height="1"/><line class="cls-4" x1="18.47" y1="18.6" x2="12" y2="18.6"/><line class="cls-4" x1="13.39" y1="18" x2="13.39" y2="19.2"/><line class="cls-4" x1="12.47" y1="20.5" x2="19.47" y2="20.5"/></g></svg>